<svg width="33" height="27" fill="none" xmlns="http://www.w3.org/2000/svg"><path d="M29.844 17.097h-2.009a.784.784 0 00-.78.777H24.13a10.301 10.301 0 00-3.984-9.343l2.704-3.212a.776.776 0 001.095-.097l1.297-1.54A2.246 2.246 0 0024.98.528a2.207 2.207 0 00-1.624-.521 2.21 2.21 0 00-1.515.785l-1.297 1.54a.782.782 0 00-.182.572.78.78 0 00.268.529L17.551 7.09a10.15 10.15 0 00-3.594-.651c-5.645 0-10.238 4.611-10.238 10.28 0 .527.04 1.054.12 1.572l-3.26.388a.65.65 0 00-.579.655c0 .34.244.615.58.655l3.834.456c.257.665.583 1.302.973 1.9l-1.32 2.007a.654.654 0 00.124.867c.258.218.625.21.872-.022l1.481-1.388A10.225 10.225 0 0013.957 27a10.15 10.15 0 005.784-1.797 10.263 10.263 0 003.616-4.41h3.697c.005.43.353.778.782.778h2.008a2.235 2.235 0 002.228-2.237c0-1.234-1-2.237-2.228-2.237zm-9.495 2.755c.131-.275.434-.968.462-1.036h6.243v1.036h-6.705zm-1.13-8.56c0 5.852-3.107 11.324-8.119 14.313a9.294 9.294 0 01-1.446-.608 15.34 15.34 0 005.178-4.35.473.473 0 00.033-.039c.641-.859 1.226-1.784 1.66-2.756a15.424 15.424 0 001.463-6.758l1.158-1.376c.049.523.074 1.05.074 1.575zm-6.34 4.41l-1.828 2.172H9.7l2.28-2.709c.306.169.606.348.899.538zm.775.539a14.513 14.513 0 011.823 1.617l-.008.016h-3.19l1.375-1.633zm7.692-12.199l.787.67-5.85 6.947a19.11 19.11 0 00-.867-.574l5.93-7.043zm1.21-2.641a1.28 1.28 0 01.877-.454c.344-.03.678.078.94.301a1.3 1.3 0 01.153 1.825L23.33 4.494l-1.97-1.673 1.196-1.42zM4.657 16.719c0-5.15 4.172-9.339 9.3-9.339 1.012 0 2 .162 2.946.48l-2.308 2.74a19.474 19.474 0 00-3.37-1.48.471.471 0 00-.293.895 18.554 18.554 0 015.977 3.3c-.065.457-.15.909-.257 1.354a17.389 17.389 0 00-8.357-4.095.47.47 0 00-.171.926 16.465 16.465 0 018.245 4.184c-.136.429-.293.85-.468 1.263a15.26 15.26 0 00-6.962-3.999.471.471 0 00-.236.912 14.28 14.28 0 012.417.868l-2.649 3.146H7.37a.486.486 0 00-.055.003l-2.543.303a9.493 9.493 0 01-.114-1.46zm2.74 2.097h7.547c-.215.355-.446.7-.69 1.036H7.396l-4.35-.518 4.35-.518zm-1.913 1.757l.992.118-.52.79a9.327 9.327 0 01-.472-.908zm2.048.22h.855l-2.23 2.09 1.375-2.09zm-.302 2.373l2.532-2.372h3.741a14.383 14.383 0 01-4.808 3.624 9.313 9.313 0 01-1.465-1.252zm5.133 2.753a17.652 17.652 0 005.398-5.743 17.62 17.62 0 002.325-10.48 9.36 9.36 0 013.1 8.178h-1.17a19.813 19.813 0 00-.554-.894c.198-.664.363-1.34.491-2.027a.47.47 0 10-.922-.174 18.722 18.722 0 01-1.852 5.309 18.814 18.814 0 01-4.967 5.965 9.25 9.25 0 01-1.849-.134zm6.218-3.089c.203.551.373 1.116.507 1.687a9.229 9.229 0 01-3.194 1.338 19.753 19.753 0 002.687-3.025zm1.323 1.079a15.381 15.381 0 00-.685-2.02c.227-.358.444-.723.647-1.095h.215c.323.692.6 1.41.825 2.14a9.22 9.22 0 01-1.002.975zm1.698-1.864c-.148-.423-.312-.84-.49-1.251h1.215c-.212.44-.455.857-.725 1.251zm8.242-1.416h-1.852v-2.59h1.852a1.294 1.294 0 010 2.59z" fill="#9B51E0"/></svg>