<svg width="20" height="22" fill="none" xmlns="http://www.w3.org/2000/svg"><path d="M14.204 9.453c0-.475-.39-.86-.871-.86h-8.98a.866.866 0 00-.87.86c0 .475.39.86.87.86h8.98a.866.866 0 00.871-.86zm-9.85 2.578a.866.866 0 00-.872.86c0 .474.39.859.872.859h5.453a.866.866 0 00.872-.86.866.866 0 00-.872-.859H4.354z" fill="#CCC"/><path d="M6.402 20.281H3.487c-.961 0-1.744-.77-1.744-1.718V3.438c0-.948.783-1.72 1.744-1.72h10.717c.962 0 1.744.772 1.744 1.72v5.285c0 .474.39.859.872.859a.866.866 0 00.871-.86V3.439C17.691 1.542 16.127 0 14.204 0H3.487C1.564 0 0 1.542 0 3.438v15.124C0 20.459 1.564 22 3.487 22h2.915a.866.866 0 00.872-.86.866.866 0 00-.872-.859z" fill="#CCC"/><path d="M19.235 12.443a2.645 2.645 0 00-3.697-.001l-4.786 4.707a.857.857 0 00-.219.36L9.491 20.89a.85.85 0 00.21.85.878.878 0 00.857.228l3.518-.961a.875.875 0 00.383-.22l4.776-4.7a2.555 2.555 0 000-3.646zm-5.845 6.969l-1.77.483.518-1.681 3.23-3.176 1.232 1.215-3.21 3.159zm4.613-4.54l-.169.167-1.233-1.215.169-.166a.882.882 0 011.233 0c.34.335.34.88 0 1.215zm-4.67-9.716h-8.98a.866.866 0 00-.87.86c0 .474.39.859.87.859h8.98a.866.866 0 00.871-.86.865.865 0 00-.871-.859z" fill="#CCC"/></svg>