<svg width="20" height="19" fill="none" xmlns="http://www.w3.org/2000/svg"><path d="M17.25 0H2.75A2.753 2.753 0 000 2.75v8.874a2.753 2.753 0 002.74 2.75V18.4l5.787-4.027h8.723a2.753 2.753 0 002.75-2.75V2.75A2.753 2.753 0 0017.25 0zm1.171 11.579c0 .87-.3 1.053-1.17 1.053H8.42L3.91 15.79v-3.158H2.74c-.87 0-1.161-.138-1.161-1.008V2.75c0-.87.3-1.171 1.17-1.171H17.25c.87 0 1.171.3 1.171 1.17v8.83z" fill="#CCC"/><path d="M5.353 3.684h9.294v1.629H5.353V3.684zm0 2.632h9.294v1.497H5.353V6.316zm0 2.824h9.294v1.526H5.353V9.14z" fill="#CCC"/></svg>