<svg width="30" height="27" fill="none" xmlns="http://www.w3.org/2000/svg"><path d="M25.2 9.25V8.194l3.89-.182v-1.96l-3.89-.18v-.813h-3.04V1.474C22.16.662 21.5 0 20.693 0H8.396c-.809 0-1.467.661-1.467 1.474V5.06h-3.04v.813L0 6.052v1.96l3.888.182V9.25h3.04v2.277h-3.04v.812L0 12.52v1.958l3.888.182v1.056h3.04v2.522h-3.04v.813L0 19.234v1.959l3.888.18v1.057h3.04v3.097A1.47 1.47 0 008.397 27h12.297a1.47 1.47 0 001.466-1.473V22.43h3.04v-1.056l3.89-.181v-1.96l-3.89-.18v-.814h-3.04v-2.522h3.04v-1.056l3.89-.182v-1.958l-3.89-.182v-.812h-3.04V9.25h3.04zm-2.919-3.418h2.148v.778l3.89.182v.481l-3.89.182v1.02h-2.148V5.833zM6.809 8.476h-2.15v-1.02L.77 7.274v-.481l3.89-.182v-.778h2.148v2.643zm0 6.467h-2.15v-1.02l-3.889-.18v-.482l3.89-.182V12.3h2.148v2.643zm0 6.711h-2.15v-1.02L.77 20.452v-.48l3.89-.182v-.777h2.148v2.641zM9.625 3.84a.956.956 0 010-1.912c.525 0 .952.428.952.956a.955.955 0 01-.952.956zm12.656 15.173h2.148v.778l3.89.181v.481l-3.89.182v1.02h-2.148v-2.642zm0-6.711h2.148v.777l3.89.183v.482l-3.89.181v1.02h-2.148v-2.643z" fill="#219653"/></svg>