<svg width="27" height="27" fill="none" xmlns="http://www.w3.org/2000/svg"><path d="M13.03 6.1c-3.835 0-6.955 3.134-6.955 6.985 0 1.576.515 3.066 1.488 4.307.192.245.394.48.607.73l.012.013c.654.761 1.33 1.55 1.582 2.477.057.212.065.62.062.934v.533c0 .489.394.885.88.885h4.611c.486 0 .88-.396.88-.885v-.54c-.002-.41.019-.709.061-.864.254-.921 1.003-1.806 1.67-2.594l.029-.034c.192-.227.374-.441.54-.653a6.915 6.915 0 001.49-4.309C19.985 9.234 16.865 6.1 13.03 6.1zm4.083 10.2c-.145.186-.316.387-.497.601l-.036.042c-.779.92-1.661 1.963-2.02 3.262-.05.184-.106.46-.12.99h-2.855c-.012-.563-.07-.852-.121-1.046-.358-1.317-1.24-2.344-1.948-3.169l-.012-.014c-.2-.233-.39-.453-.557-.668a5.16 5.16 0 01-1.11-3.213c0-2.876 2.33-5.216 5.194-5.216s5.194 2.34 5.194 5.216a5.16 5.16 0 01-1.112 3.216zm-1.796 6.915h-4.61a.882.882 0 00-.881.884c0 .488.394.884.88.884h4.611c.486 0 .88-.396.88-.884a.882.882 0 00-.88-.884zm-1.153 2.017H11.86a.882.882 0 00-.88.884c0 .488.394.884.88.884h2.305c.486 0 .88-.396.88-.884a.882.882 0 00-.88-.884zM25.18 12.201h-3.037a.882.882 0 00-.88.884c0 .489.394.884.88.884h3.037a.882.882 0 00.881-.884.882.882 0 00-.88-.884zm-20.381.884a.882.882 0 00-.88-.884H.88a.882.882 0 00-.881.884c0 .489.394.884.88.884h3.038a.88.88 0 00.88-.884zM13.03 4.82a.883.883 0 00.881-.885V.885a.882.882 0 00-.88-.885.882.882 0 00-.88.884v3.051c0 .489.393.885.88.885zm7.066 14.11a.878.878 0 00-1.245 0 .887.887 0 000 1.25l2.148 2.158a.876.876 0 001.245 0 .887.887 0 000-1.25l-2.148-2.158zM5.964 7.24a.876.876 0 001.245 0 .887.887 0 000-1.25L5.062 3.833a.878.878 0 00-1.245 0 .887.887 0 000 1.25L5.964 7.24zm.001 11.69l-2.148 2.158a.887.887 0 000 1.25.876.876 0 001.245 0L7.21 20.18a.887.887 0 000-1.25.878.878 0 00-1.245 0zM19.474 7.499c.225 0 .45-.087.623-.26l2.147-2.156a.887.887 0 000-1.25.878.878 0 00-1.245 0L18.85 5.989a.887.887 0 000 1.25.875.875 0 00.623.26z" fill="#2F80ED"/></svg>