<svg width="20" height="20" fill="none" xmlns="http://www.w3.org/2000/svg"><path d="M5.137 18.438H2.37a.794.794 0 01-.625-.298.816.816 0 01-.166-.684c.812-3.897 4.25-6.743 8.22-6.835a5.265 5.265 0 00.4 0c.972.022 1.92.204 2.823.543a.781.781 0 00.549-1.462c-.13-.049-.26-.094-.39-.138a5.308 5.308 0 002.13-4.252A5.319 5.319 0 0010 0a5.319 5.319 0 00-5.313 5.313c0 1.738.84 3.284 2.135 4.254-1.186.39-2.3.998-3.274 1.8a10.192 10.192 0 00-3.497 5.77A2.372 2.372 0 002.37 20h2.766a.781.781 0 100-1.563zM6.25 5.313A3.754 3.754 0 0110 1.563a3.754 3.754 0 013.75 3.75 3.755 3.755 0 01-3.567 3.745 10.106 10.106 0 00-.366 0A3.755 3.755 0 016.25 5.313z" fill="#CCC"/><path d="M19.402 13.461a2.105 2.105 0 00-1.921-1.234h-2.442c-.879 0-1.646.518-1.954 1.32a9.342 9.342 0 00-.144.398H7.826a.781.781 0 00-.56.237l-1.342 1.383a.781.781 0 00.003 1.092l1.367 1.39a.78.78 0 00.557.234h2.54a.781.781 0 100-1.562H8.178l-.603-.614.58-.597h5.371c.36 0 .674-.246.76-.596.062-.258.142-.506.256-.804.076-.197.266-.319.498-.319h2.438c.22 0 .411.12.496.31.21.47.46 1.195.462 1.991.002.802-.248 1.546-.458 2.028a.533.533 0 01-.491.32H15.02a.556.556 0 01-.504-.346 5.188 5.188 0 01-.242-.774.781.781 0 00-1.52.364c.091.379.195.708.318 1.005A2.108 2.108 0 0015.019 20h2.47c.835 0 1.589-.493 1.922-1.258.27-.62.591-1.582.589-2.655-.003-1.07-.327-2.018-.598-2.626z" fill="#CCC"/><path d="M16.836 16.875a.781.781 0 100-1.563.781.781 0 000 1.563z" fill="#CCC"/></svg>