<svg width="40" height="40" fill="none" xmlns="http://www.w3.org/2000/svg"><path d="M30.957 23.82c-.523-.627-1.117-1.19-1.691-1.733a56.396 56.396 0 01-.619-.592c-.584-.571-.605-.786-.143-1.435.32-.447.66-.895.988-1.328.297-.393.605-.8.9-1.207l.06-.084c.565-.78 1.148-1.587 1.458-2.56.08-.257.165-.635-.028-.95-.193-.317-.568-.413-.834-.458a2.275 2.275 0 00-.382-.025l-3.693-.003h-.03c-.56 0-.935.263-1.151.804a22.13 22.13 0 01-.69 1.592c-.514 1.043-1.166 2.244-2.11 3.246l-.04.043c-.11.12-.237.255-.33.255a.16.16 0 01-.046-.008c-.196-.076-.327-.55-.32-.77v-.009l-.003-4.268a.344.344 0 00-.003-.044c-.094-.694-.302-1.126-1.089-1.28a.322.322 0 00-.063-.006h-3.84c-.625 0-.97.254-1.294.635-.088.102-.27.313-.18.57.092.261.39.317.486.335.48.091.751.385.828.899.134.891.15 1.843.052 2.994a2.52 2.52 0 01-.172.779c-.02.05-.094.21-.17.21-.023 0-.093-.01-.219-.096-.298-.204-.515-.495-.77-.855-.864-1.222-1.59-2.567-2.218-4.115-.233-.57-.668-.889-1.225-.898a111.3 111.3 0 00-1.699-.014c-.579 0-1.115.006-1.64.016-.448.008-.758.143-.922.4-.163.258-.153.597.032 1.007 1.477 3.285 2.817 5.673 4.344 7.744 1.07 1.45 2.142 2.453 3.376 3.157 1.3.743 2.756 1.105 4.453 1.105.192 0 .39-.005.591-.014.986-.048 1.352-.405 1.398-1.365.022-.49.076-1.005.317-1.443.152-.277.294-.277.34-.277a.63.63 0 01.321.12c.215.14.399.327.55.49.142.156.282.314.423.471.303.34.616.69.944 1.024.717.73 1.506 1.05 2.414.98h3.407a.987.987 0 00.802-.514c.213-.377.209-.857-.012-1.285-.25-.485-.574-.899-.858-1.24z" fill="#CCC"/><path d="M39.89 11.76c-.093-2.125-.437-3.586-.929-4.853a9.76 9.76 0 00-2.313-3.547 9.844 9.844 0 00-3.54-2.305c-1.273-.492-2.727-.836-4.852-.93C26.114.024 25.435 0 20.004 0c-5.43 0-6.11.024-8.244.117-2.125.094-3.586.438-4.852.93A9.76 9.76 0 003.36 3.36 9.848 9.848 0 001.055 6.9C.563 8.174.219 9.627.125 11.752.024 13.893 0 14.573 0 20.004c0 5.43.024 6.11.117 8.244.094 2.125.438 3.586.93 4.852a9.864 9.864 0 002.313 3.548 9.843 9.843 0 003.54 2.305c1.274.492 2.727.836 4.852.93 2.133.094 2.814.117 8.244.117 5.431 0 6.11-.023 8.244-.117 2.126-.094 3.587-.438 4.853-.93a10.231 10.231 0 005.852-5.853c.492-1.273.836-2.727.93-4.852.094-2.134.117-2.813.117-8.244 0-5.43-.008-6.11-.101-8.244zm-3.6 16.332c-.086 1.953-.415 3.008-.688 3.711a6.635 6.635 0 01-3.798 3.798c-.703.273-1.766.602-3.712.687-2.11.094-2.742.118-8.08.118-5.336 0-5.977-.024-8.079-.118-1.954-.085-3.008-.414-3.712-.687a6.155 6.155 0 01-2.297-1.493 6.218 6.218 0 01-1.492-2.297c-.274-.703-.602-1.766-.688-3.712-.094-2.11-.117-2.742-.117-8.08 0-5.336.023-5.977.117-8.08.086-1.953.414-3.007.688-3.71a6.08 6.08 0 011.5-2.298 6.21 6.21 0 012.297-1.493c.704-.273 1.766-.601 3.712-.687 2.11-.094 2.743-.117 8.08-.117 5.345 0 5.977.023 8.08.117 1.953.086 3.008.414 3.711.687a6.15 6.15 0 012.297 1.493 6.217 6.217 0 011.493 2.297c.273.704.602 1.766.688 3.712.093 2.11.117 2.742.117 8.08 0 5.337-.024 5.962-.117 8.072z" fill="#CCC"/></svg>