<svg width="30" height="27" fill="none" xmlns="http://www.w3.org/2000/svg"><path d="M14.228 11.083H6.67a1.972 1.972 0 00-1.963 1.975v5.246c0 1.09.88 1.976 1.963 1.976h7.558a1.972 1.972 0 001.963-1.976v-5.246a1.97 1.97 0 00-1.963-1.975zm.792 7.221c0 .44-.356.796-.792.796H6.67a.795.795 0 01-.791-.796v-5.246c0-.439.355-.796.791-.796h7.558c.436 0 .792.357.792.796v5.246z" fill="#F2994A"/><path d="M11.52 15.17l-1.556-.903a.582.582 0 00-.586 0 .59.59 0 00-.293.51v1.808a.59.59 0 00.586.59.582.582 0 00.293-.08l1.556-.903a.59.59 0 000-1.021z" fill="#F2994A"/><path d="M29.685 3.898L22.368.067a.583.583 0 00-.542 0L14.51 3.898a.59.59 0 000 1.046l2.818 1.476v1.244H5.567c-2.165 0-3.926 1.772-3.926 3.95V22.52H.586a.588.588 0 00-.586.59C0 25.254 1.735 27 3.867 27H22.97c2.132 0 3.867-1.745 3.867-3.89a.588.588 0 00-.586-.59h-1.055V11.614a4.01 4.01 0 00-.008-.248l1.323-.566a.59.59 0 00.357-.542V6.42l1.961-1.027V9c0 .325.262.59.586.59A.588.588 0 0030 9V4.42a.59.59 0 00-.315-.523zM24.023 22.52h-7.968a.588.588 0 00-.586.59c0 .325.262.589.586.589H25.6a2.704 2.704 0 01-2.631 2.122H3.867a2.704 2.704 0 01-2.631-2.122h9.545a.588.588 0 00.586-.59.588.588 0 00-.586-.59H2.812V11.615a2.765 2.765 0 012.754-2.771h11.76v1.415c0 .236.141.45.357.542l4.185 1.788a.582.582 0 00.458 0l1.697-.725V22.52zm1.672-12.652l-3.598 1.537-3.599-1.537V7.033l3.328 1.743a.583.583 0 00.541 0l3.328-1.743v2.835zm-3.598-2.28l-6.048-3.167 6.048-3.167 6.048 3.167-6.048 3.168z" fill="#F2994A"/><path d="M21.683 4.005a.596.596 0 000 .833c.109.11.26.173.414.173a.588.588 0 00.414-1.006.588.588 0 00-.414-.173.589.589 0 00-.414.173zm.094 15.095h-3.203a.588.588 0 00-.586.59c0 .325.263.59.586.59h3.203a.588.588 0 00.586-.59.588.588 0 00-.586-.59zm0-2.83h-3.203a.588.588 0 00-.586.59c0 .326.263.59.586.59h3.203a.588.588 0 00.586-.59.588.588 0 00-.586-.59zm-8.359 6.25a.588.588 0 10.414 1.006.596.596 0 000-.834.588.588 0 00-.414-.172z" fill="#F2994A"/></svg>