<svg width="40" height="40" fill="none" xmlns="http://www.w3.org/2000/svg"><path d="M39.89 11.76c-.093-2.125-.437-3.586-.929-4.853a9.76 9.76 0 00-2.313-3.547 9.844 9.844 0 00-3.54-2.305c-1.273-.492-2.727-.836-4.852-.93C26.114.024 25.435 0 20.004 0c-5.43 0-6.11.024-8.244.117-2.125.094-3.586.438-4.852.93A9.76 9.76 0 003.36 3.36 9.848 9.848 0 001.055 6.9C.563 8.174.219 9.627.125 11.752.024 13.893 0 14.573 0 20.004c0 5.43.024 6.11.117 8.244.094 2.125.438 3.586.93 4.852a9.864 9.864 0 002.313 3.548 9.843 9.843 0 003.54 2.305c1.274.492 2.727.836 4.852.93 2.133.094 2.814.117 8.244.117 5.431 0 6.11-.023 8.244-.117 2.126-.094 3.587-.438 4.853-.93a10.231 10.231 0 005.852-5.853c.492-1.273.836-2.727.93-4.852.094-2.134.117-2.813.117-8.244 0-5.43-.008-6.11-.101-8.244zm-3.6 16.332c-.086 1.953-.415 3.008-.688 3.711a6.635 6.635 0 01-3.798 3.798c-.703.273-1.766.602-3.712.687-2.11.094-2.742.118-8.08.118-5.336 0-5.977-.024-8.079-.118-1.954-.085-3.008-.414-3.712-.687a6.155 6.155 0 01-2.297-1.493 6.218 6.218 0 01-1.492-2.297c-.274-.703-.602-1.766-.688-3.712-.094-2.11-.117-2.742-.117-8.08 0-5.336.023-5.977.117-8.08.086-1.953.414-3.007.688-3.71a6.08 6.08 0 011.5-2.298 6.21 6.21 0 012.297-1.493c.704-.273 1.766-.601 3.712-.687 2.11-.094 2.743-.117 8.08-.117 5.345 0 5.977.023 8.08.117 1.953.086 3.008.414 3.711.687a6.15 6.15 0 012.297 1.493 6.217 6.217 0 011.493 2.297c.273.704.602 1.766.688 3.712.093 2.11.117 2.742.117 8.08 0 5.337-.024 5.962-.117 8.072z" fill="#CCC"/><path d="M13.884 22.194c.321.132.616.005.706-.35.07-.25.222-.871.293-1.132.09-.355.057-.477-.204-.79-.568-.668-.932-1.535-.932-2.766 0-3.56 2.666-6.751 6.941-6.751 3.789 0 5.868 2.315 5.868 5.407 0 4.063-1.796 7.49-4.471 7.49-1.477 0-2.576-1.217-2.225-2.714.426-1.784 1.245-3.716 1.245-5.003 0-1.156-.615-2.117-1.9-2.117-1.51 0-2.722 1.558-2.722 3.65 0 1.331.45 2.23.45 2.23l-1.814 7.685c-.54 2.277-.08 5.07-.042 5.355.024.166.241.208.337.08.137-.18 1.936-2.395 2.547-4.611.17-.63.99-3.879.99-3.879.488.939 1.922 1.758 3.447 1.758 4.533 0 7.606-4.13 7.606-9.659 0-4.18-3.543-8.077-8.928-8.077C14.371 8 11 12.8 11 16.805c0 2.43.919 4.585 2.884 5.39z" fill="#CCC"/></svg>