<svg width="27" height="27" fill="none" xmlns="http://www.w3.org/2000/svg"><path d="M18.214 8.182a.526.526 0 10.002 1.052.526.526 0 00-.002-1.052zm-9.542 9.581a.526.526 0 00-.525.527.526.526 0 101.05 0 .526.526 0 00-.525-.527z" fill="#EB5757"/><path d="M26.234 3.244a.523.523 0 00-.492.142L23.565 5.59h-1.044l-1.149-1.195V3.332l2.146-2.187a.528.528 0 00-.206-.87A5.218 5.218 0 0021.635 0c-1.71 0-3.264.801-4.263 2.197a5.23 5.23 0 00-.81 4.443l-3.869 3.884L6.25 4.038V2.765a.528.528 0 00-.255-.452L2.281.075a.523.523 0 00-.642.08L.154 1.645a.53.53 0 00-.079.645l2.228 3.73a.525.525 0 00.45.256H4.02l6.445 6.487-3.853 3.87a5.175 5.175 0 00-4.425.814A5.22 5.22 0 000 21.726c0 .576.092 1.143.274 1.684a.525.525 0 00.87.203l2.177-2.203h1.05l1.195 1.2v1.054L3.372 25.85a.529.529 0 00.202.874A5.217 5.217 0 005.251 27c1.71 0 3.264-.801 4.262-2.197a5.232 5.232 0 00.812-4.443l3.095-3.108.709.773-.326.327a.529.529 0 000 .745.524.524 0 00.743 0l.295-.295 6.651 7.255.015.016a3.14 3.14 0 004.457 0 3.178 3.178 0 000-4.475l-.017-.016-7.236-6.667.291-.292a.529.529 0 000-.746.524.524 0 00-.743 0l-.323.325-.771-.711 3.11-3.123a5.24 5.24 0 001.36.179c2.896 0 5.251-2.366 5.251-5.274 0-.576-.092-1.142-.274-1.684a.526.526 0 00-.378-.345zM4.61 5.375a.519.519 0 00-.372-.15H3.051L1.187 2.102l.905-.91L5.2 3.065v1.192c0 .14.055.274.153.373l6.599 6.641-.743.746-6.598-6.64zm13.358 10.287l7.26 6.69a2.12 2.12 0 01-.007 2.975 2.094 2.094 0 01-2.964.007l-6.673-7.279 2.384-2.393zm-.775-.714l-2.321 2.33-.71-.773 2.26-2.268.77.711zm4.442-5.456c-.46 0-.91-.074-1.342-.22a.524.524 0 00-.539.127L9.36 19.837a.529.529 0 00-.127.541 4.19 4.19 0 01-.573 3.81 4.148 4.148 0 01-3.409 1.757c-.153 0-.306-.009-.458-.025l1.668-1.662a.528.528 0 00.156-.374v-1.492a.529.529 0 00-.154-.373l-1.504-1.51a.524.524 0 00-.371-.154H3.102a.525.525 0 00-.373.156l-1.654 1.675a4.284 4.284 0 01-.025-.46c0-1.374.638-2.621 1.75-3.423a4.143 4.143 0 013.793-.576.523.523 0 00.54-.127L17.525 7.162a.529.529 0 00.127-.54 4.188 4.188 0 01.572-3.81 4.149 4.149 0 013.41-1.757c.158 0 .316.009.471.026l-1.633 1.665a.528.528 0 00-.15.37v1.491c0 .137.052.268.146.367l1.451 1.51a.524.524 0 00.378.16h1.486c.14 0 .274-.056.373-.156l1.654-1.674c.017.152.025.305.025.46 0 2.326-1.885 4.218-4.2 4.218z" fill="#EB5757"/><path d="M16.357 9.827l-6.571 6.6a.53.53 0 000 .745.524.524 0 00.743 0l6.571-6.599a.529.529 0 000-.746.524.524 0 00-.743 0zm6.637 14.009a.524.524 0 00.742-.001.529.529 0 00-.001-.746l-4.733-4.738a.524.524 0 00-.743.001.529.529 0 00.001.746l4.733 4.738z" fill="#EB5757"/></svg>