<svg xmlns="http://www.w3.org/2000/svg" xmlns:xlink="http://www.w3.org/1999/xlink"><symbol id="icon-arrow-right-small" viewBox="0 0 8 14">
<path d="M1 1L6 7L1 13" stroke="#CCCCCC" stroke-width="2"/>
</symbol><symbol id="icon-authorization" viewBox="0 0 20 20">
<path d="M5.1367 18.4375H2.37081C2.03729 18.4375 1.83608 18.2514 1.74585 18.1404C1.59007 17.9487 1.52972 17.6994 1.58038 17.4561C2.39167 13.5591 5.83073 10.7132 9.80088 10.6209C9.86701 10.6234 9.9333 10.625 9.99998 10.625C10.0672 10.625 10.1341 10.6233 10.2008 10.6208C11.1717 10.643 12.1199 10.8255 13.0226 11.1645C13.4265 11.3162 13.8769 11.1116 14.0286 10.7077C14.1803 10.3038 13.9758 9.85336 13.5718 9.70168C13.4425 9.65309 13.3122 9.60762 13.1814 9.56449C14.4744 8.59457 15.3125 7.04957 15.3125 5.3125C15.3125 2.3832 12.9293 0 9.99998 0C7.07065 0 4.68749 2.3832 4.68749 5.3125C4.68749 7.05113 5.52702 8.59734 6.82198 9.56711C5.63561 9.95766 4.52233 10.565 3.54803 11.3664C1.76163 12.8358 0.51956 14.8854 0.0506929 17.1376C-0.0962602 17.8433 0.0797553 18.5682 0.533622 19.1262C0.985184 19.6815 1.65483 20 2.37081 20H5.1367C5.56819 20 5.91795 19.6502 5.91795 19.2188C5.91795 18.7873 5.56819 18.4375 5.1367 18.4375ZM6.24999 5.3125C6.24999 3.24473 7.93221 1.5625 9.99998 1.5625C12.0678 1.5625 13.75 3.24473 13.75 5.3125C13.75 7.31902 12.1658 8.96242 10.1826 9.05801C10.1217 9.05691 10.0609 9.05598 9.99998 9.05598C9.93889 9.05598 9.87783 9.05688 9.81682 9.05797C7.83381 8.96211 6.24999 7.31883 6.24999 5.3125Z" fill="#CCCCCC"/>
<path d="M19.4016 13.4612C19.0672 12.7132 18.3139 12.2285 17.4807 12.2266H15.0391C14.1602 12.2266 13.3934 12.7445 13.0849 13.5471C13.0438 13.6539 12.9936 13.7885 12.9412 13.9453H7.82614C7.61493 13.9453 7.41275 14.0308 7.2656 14.1823L5.92357 15.5647C5.62798 15.8691 5.62947 16.3539 5.92689 16.6565L7.29408 18.0476C7.44095 18.197 7.64173 18.2812 7.85126 18.2812H10.3903C10.8218 18.2812 11.1716 17.9314 11.1716 17.5C11.1716 17.0685 10.8218 16.7187 10.3903 16.7187H8.17884L7.57618 16.1055L8.15654 15.5078H13.5273C13.8872 15.5078 14.2005 15.2619 14.2861 14.9123C14.3493 14.6543 14.4286 14.4061 14.5433 14.1078C14.6189 13.9111 14.8088 13.7891 15.041 13.7891H17.4789C17.6998 13.7896 17.89 13.9083 17.9752 14.0989C18.1849 14.5681 18.4353 15.2945 18.4372 16.0905C18.4391 16.8925 18.1889 17.6355 17.9786 18.1177C17.8939 18.3121 17.7021 18.4375 17.488 18.4375H15.0209C14.8048 18.437 14.6023 18.2979 14.5172 18.0915C14.4258 17.87 14.3466 17.617 14.2751 17.3182C14.1747 16.8986 13.7529 16.6398 13.3335 16.7402C12.9138 16.8406 12.6551 17.2622 12.7555 17.6818C12.8462 18.0607 12.95 18.3896 13.0727 18.6872C13.4008 19.4827 14.1641 19.998 15.0191 20H17.4898C18.3239 19.9999 19.0776 19.5066 19.4109 18.7421C19.6809 18.1229 20.0022 17.1596 19.9997 16.0868C19.9972 15.017 19.6731 14.0685 19.4016 13.4612Z" fill="#CCCCCC"/>
<path d="M16.8357 16.875C17.2671 16.875 17.6169 16.5252 17.6169 16.0938C17.6169 15.6623 17.2671 15.3125 16.8357 15.3125C16.4042 15.3125 16.0544 15.6623 16.0544 16.0938C16.0544 16.5252 16.4042 16.875 16.8357 16.875Z" fill="#CCCCCC"/>
</symbol><symbol id="icon-circuits" viewBox="0 0 30 27">
<path d="M25.2002 9.25012V8.19382L29.0892 8.01246V6.05275L25.2002 5.87187V5.0587H22.1595V1.47418C22.1595 0.661892 21.5013 0 20.6931 0H8.39562C7.58698 0 6.92874 0.661408 6.92874 1.47418V5.0587H3.88848V5.87195L0 6.05275V8.01246L3.88848 8.19382V9.25012H6.92874V11.5275H3.88848V12.3388L0 12.5206V14.4793L3.88848 14.6614V15.7175H6.92874V18.2389H3.88848V19.0525L0 19.2339V21.1926L3.88848 21.3737V22.4304H6.92874V25.5274C6.92874 26.3404 7.58689 27 8.39562 27H20.6931C21.5013 27 22.1595 26.3404 22.1595 25.5274V22.4304H25.2003V21.3737L29.0892 21.1926V19.2339L25.2003 19.0524V18.2388H22.1595V15.7174H25.2002V14.6613L29.0892 14.4792V12.5205L25.2002 12.3387V11.5274H22.1595V9.25004L25.2002 9.25012ZM22.281 5.8322H24.4292V6.61013L28.3187 6.79222V7.27299L24.4292 7.45507V8.47557H22.281V5.8322ZM6.80868 8.47557H4.65923V7.45556L0.770341 7.27355V6.79278L4.65931 6.6107V5.83276H6.8082L6.80868 8.47557ZM6.80868 14.9432H4.65923V13.9239L0.770261 13.7418V13.26L4.65923 13.0779V12.3H6.80812L6.80868 14.9432ZM6.80868 21.6545H4.65923V20.6338L0.770261 20.4522V19.9713L4.65923 19.7898V19.0125H6.80812L6.80868 21.6545ZM9.62521 3.83943C9.10035 3.83943 8.67266 3.41042 8.67266 2.88279C8.67266 2.35476 9.09987 1.92689 9.62521 1.92689C10.1505 1.92689 10.5771 2.35476 10.5771 2.88279C10.577 3.41034 10.1501 3.83943 9.62521 3.83943ZM22.281 19.0125H24.4292V19.7898L28.3187 19.9713V20.4522L24.4292 20.6338V21.6545H22.281V19.0125ZM22.281 12.3006H24.4292V13.0785L28.3187 13.2605V13.7426L24.4292 13.9244V14.9442H22.281V12.3006Z" fill="#219653"/>
</symbol><symbol id="icon-courses" viewBox="0 0 30 27">
<path d="M14.228 11.0829H6.67037C5.58774 11.0829 4.70701 11.969 4.70701 13.0583V18.3041C4.70701 19.3933 5.58774 20.2795 6.67037 20.2795H14.228C15.3107 20.2795 16.1914 19.3933 16.1914 18.3041V13.0583C16.1914 11.969 15.3107 11.0829 14.228 11.0829ZM15.0195 18.3041C15.0195 18.7432 14.6644 19.1004 14.228 19.1004H6.67037C6.23397 19.1004 5.87889 18.7432 5.87889 18.3041V13.0583C5.87889 12.6192 6.23397 12.262 6.67037 12.262H14.228C14.6644 12.262 15.0195 12.6192 15.0195 13.0583V18.3041Z" fill="#F2994A"/>
<path d="M11.5202 15.1707L9.9641 14.2668C9.78281 14.1614 9.55945 14.1614 9.37816 14.2668C9.19687 14.372 9.08519 14.5667 9.08519 14.7773V16.5851C9.08519 16.7957 9.19687 16.9903 9.37816 17.0956C9.46881 17.1483 9.56994 17.1746 9.67113 17.1746C9.77232 17.1746 9.87345 17.1483 9.9641 17.0956L11.5202 16.1917C11.7015 16.0864 11.8132 15.8918 11.8132 15.6812C11.8132 15.4706 11.7015 15.276 11.5202 15.1707Z" fill="#F2994A"/>
<path d="M29.6846 3.89847L22.3675 0.0665863C22.1978 -0.0221954 21.996 -0.0221954 21.8264 0.0665863L14.5092 3.89847C14.3154 3.99998 14.1938 4.20154 14.1938 4.42137C14.1938 4.6412 14.3154 4.84276 14.5092 4.94428L17.3266 6.41973V7.66373H5.56641C3.40172 7.66373 1.64062 9.4356 1.64062 11.6135V22.5196H0.585938C0.262383 22.5196 0 22.7836 0 23.1092C0 25.2546 1.73478 27 3.86719 27H22.9688C25.1012 27 26.8359 25.2546 26.8359 23.1092C26.8359 22.7836 26.5736 22.5196 26.25 22.5196H25.1953V11.6135C25.1953 11.5309 25.1918 11.4483 25.1867 11.3659L26.5103 10.8002C26.7267 10.7078 26.8672 10.4941 26.8672 10.2576V6.41973L28.8281 5.39278V9.00082C28.8281 9.32636 29.0905 9.59034 29.4141 9.59034C29.7376 9.59034 30 9.32636 30 9.00082V4.42137C30 4.20148 29.8784 3.99992 29.6846 3.89847ZM24.0234 22.5196H16.0547C15.7311 22.5196 15.4688 22.7836 15.4688 23.1092C15.4688 23.4347 15.7311 23.6987 16.0547 23.6987H25.5999C25.3316 24.9114 24.2537 25.821 22.9688 25.821H3.86719C2.58217 25.821 1.50434 24.9114 1.23604 23.6987H10.7812C11.1048 23.6987 11.3672 23.4347 11.3672 23.1092C11.3672 22.7836 11.1048 22.5196 10.7812 22.5196H2.8125V11.6135C2.8125 10.0857 4.04789 8.84277 5.56641 8.84277H17.3266V10.2576C17.3266 10.4941 17.4671 10.7078 17.6835 10.8002L21.8679 12.5884C21.9411 12.6197 22.019 12.6353 22.0969 12.6353C22.1749 12.6353 22.2528 12.6197 22.326 12.5884L24.0234 11.863V22.5196ZM25.6953 9.86754L22.0969 11.4054L18.4985 9.86754V7.03342L21.8264 8.77616C21.9112 8.82055 22.0041 8.84277 22.0969 8.84277C22.1898 8.84277 22.2827 8.82055 22.3675 8.77616L25.6953 7.03342V9.86754ZM22.0969 7.58863L16.0488 4.42137L22.0969 1.25406L28.145 4.42137L22.0969 7.58863Z" fill="#F2994A"/>
<path d="M21.6826 4.00451C21.5736 4.11416 21.5109 4.26625 21.5109 4.4213C21.5109 4.57634 21.5736 4.72844 21.6826 4.83803C21.7916 4.94768 21.9428 5.01082 22.0969 5.01082C22.251 5.01082 22.4021 4.94774 22.5111 4.83803C22.6201 4.72844 22.6828 4.57634 22.6828 4.4213C22.6828 4.26625 22.6201 4.11416 22.5111 4.00451C22.4021 3.89486 22.2515 3.83178 22.0969 3.83178C21.9428 3.83184 21.7916 3.89486 21.6826 4.00451Z" fill="#F2994A"/>
<path d="M21.7774 19.1004H18.5742C18.2507 19.1004 17.9883 19.3644 17.9883 19.69C17.9883 20.0155 18.2507 20.2795 18.5742 20.2795H21.7774C22.1009 20.2795 22.3633 20.0155 22.3633 19.69C22.3633 19.3644 22.1009 19.1004 21.7774 19.1004Z" fill="#F2994A"/>
<path d="M21.7774 16.2708H18.5742C18.2507 16.2708 17.9883 16.5347 17.9883 16.8603C17.9883 17.1858 18.2507 17.4498 18.5742 17.4498H21.7774C22.1009 17.4498 22.3633 17.1858 22.3633 16.8603C22.3633 16.5347 22.1009 16.2708 21.7774 16.2708Z" fill="#F2994A"/>
<path d="M13.418 22.5197C13.2639 22.5197 13.1127 22.5827 13.0037 22.6924C12.8947 22.8021 12.832 22.9535 12.832 23.1092C12.832 23.2642 12.8947 23.4163 13.0037 23.5259C13.1127 23.6356 13.2639 23.6987 13.418 23.6987C13.5721 23.6987 13.7232 23.6356 13.8322 23.5259C13.9412 23.4163 14.0039 23.2642 14.0039 23.1092C14.0039 22.9541 13.9412 22.802 13.8322 22.6924C13.7232 22.5827 13.5721 22.5197 13.418 22.5197Z" fill="#F2994A"/>
</symbol><symbol id="icon-crafts" viewBox="0 0 33 27">
<path d="M29.8442 17.0968H27.8354C27.4071 17.0968 27.0584 17.4447 27.0542 17.8739H24.1303C24.1728 17.4915 24.1948 17.1049 24.1948 16.7193C24.1948 13.497 22.6893 10.4715 20.146 8.53061L22.8498 5.31932C22.9952 5.44022 23.1717 5.49966 23.3477 5.49966C23.5699 5.49966 23.7908 5.40531 23.9452 5.22194L25.2422 3.68149C26.0352 2.73951 25.9173 1.32531 24.9794 0.52889C24.5251 0.143164 23.9481 -0.0418979 23.3552 0.00798465C22.7623 0.0578672 22.2241 0.336593 21.84 0.792834L20.5429 2.33315C20.4081 2.49324 20.3435 2.69649 20.3609 2.90545C20.3781 3.11171 20.4736 3.29898 20.6294 3.43397L17.551 7.09018C16.4035 6.65778 15.1958 6.4385 13.957 6.4385C8.31183 6.4385 3.71921 11.0505 3.71921 16.7193C3.71921 17.246 3.75962 17.7727 3.83873 18.2909L0.579174 18.679C0.243546 18.7191 -6.26284e-05 18.9944 1.20776e-08 19.3339C1.20776e-08 19.6733 0.243671 19.9486 0.579236 19.9886L4.41365 20.4451C4.67122 21.1099 4.99714 21.7472 5.38733 22.3453L4.06725 24.3516C3.88095 24.6349 3.93313 24.9995 4.19121 25.2186C4.44885 25.4373 4.81561 25.429 5.06304 25.1971L6.5443 23.809C8.47312 25.8413 11.1524 27 13.957 27C16.0341 27 18.0341 26.3788 19.7407 25.2035C21.3448 24.0987 22.5906 22.5769 23.3574 20.7937H27.0543C27.0586 21.2229 27.4071 21.5708 27.8355 21.5708H29.8444C31.0727 21.5708 32.072 20.5672 32.072 19.3337C32.072 18.1003 31.0726 17.0968 29.8442 17.0968ZM20.3494 19.8519C20.4801 19.5772 20.7834 18.8842 20.8115 18.8158H27.0538V19.8519H20.3494ZM19.2199 11.2925C19.2199 17.1443 16.1117 22.6164 11.1001 25.6054C10.6016 25.4436 10.1178 25.2401 9.6539 24.9969C11.7127 23.9353 13.4693 22.4373 14.8317 20.6468C14.8433 20.6345 14.8545 20.6216 14.8648 20.608C15.5061 19.749 16.0907 18.8244 16.5246 17.8524C17.4707 15.8373 17.9888 13.6048 17.9888 11.2924C17.9888 11.2262 17.9884 11.1602 17.9876 11.0941L19.1462 9.71804C19.195 10.2405 19.2199 10.7671 19.2199 11.2925ZM12.8788 15.7028L11.0508 17.8739H9.69963L11.9801 15.1654C12.2859 15.3336 12.5863 15.5131 12.8788 15.7028ZM13.6541 16.2408C14.3023 16.7248 14.9123 17.2652 15.4775 17.8583C15.4749 17.8635 15.4721 17.8687 15.4694 17.8739H12.279L13.6541 16.2408ZM21.3455 4.04244L22.1333 4.71142L16.2835 11.6592C15.9988 11.46 15.71 11.2678 15.4161 11.0846L21.3455 4.04244ZM22.5563 1.40092C22.7786 1.13679 23.0902 0.97538 23.4335 0.946507C23.7772 0.917823 24.1107 1.02476 24.3738 1.24813C24.9168 1.70921 24.9851 2.52797 24.5259 3.07334L23.3298 4.49396L21.3602 2.82148L22.5563 1.40092ZM4.65719 16.7193C4.65719 11.5697 8.82905 7.38035 13.957 7.38035C14.9688 7.38035 15.9572 7.54164 16.9034 7.85924L14.5953 10.6006C13.5241 10.0036 12.3982 9.50876 11.2244 9.12065C10.9785 9.0395 10.7133 9.17361 10.6323 9.4207C10.5513 9.66778 10.6851 9.93399 10.9311 10.0153C13.1141 10.737 15.1237 11.8472 16.9088 13.3141C16.8444 13.7715 16.7588 14.2235 16.652 14.6687C14.2785 12.5653 11.4018 11.1537 8.29498 10.5741C8.04028 10.5268 7.79554 10.6954 7.74819 10.9511C7.70089 11.2068 7.86896 11.4526 8.12359 11.5002C11.2123 12.0764 14.0607 13.5223 16.3695 15.6835C16.2329 16.1127 16.0764 16.5342 15.9014 16.9469C13.9697 15.0124 11.5772 13.6356 8.93936 12.9484C8.68855 12.8831 8.43272 13.0343 8.36764 13.2861C8.30262 13.5378 8.45314 13.7948 8.70383 13.8602C9.53795 14.0775 10.3459 14.3684 11.1201 14.7279L8.47131 17.8739H7.36934C7.35092 17.8739 7.33244 17.875 7.31409 17.8771L4.77082 18.18C4.69578 17.6988 4.65719 17.2092 4.65719 16.7193ZM7.39715 18.8158H14.9444C14.7288 19.1709 14.4983 19.5166 14.2531 19.8519H7.39709L3.04633 19.3338L7.39715 18.8158ZM5.48442 20.5726L6.4759 20.6907L5.95611 21.4807C5.78228 21.1868 5.62493 20.8836 5.48442 20.5726ZM7.53233 20.7938H8.38681L6.15793 22.8826L7.53233 20.7938ZM7.22996 23.1663L9.76158 20.7937H13.503C12.1949 22.3022 10.5679 23.548 8.69537 24.4182C8.16882 24.0555 7.67734 23.6367 7.22996 23.1663ZM12.3633 25.919C14.5648 24.4421 16.4181 22.4739 17.761 20.1759C19.329 17.4926 20.1579 14.4208 20.1579 11.2925C20.1579 10.7599 20.1333 10.2261 20.0857 9.6959C22.088 11.4595 23.2568 14.0132 23.2568 16.7193C23.2568 17.1053 23.2329 17.4923 23.1861 17.8739H22.0169C21.8398 17.5716 21.6539 17.2714 21.4615 16.9798C21.4616 16.98 21.4614 16.9796 21.4615 16.9798C21.6601 16.3163 21.8251 15.64 21.9535 14.9535C22.0013 14.6979 21.8337 14.4518 21.5791 14.4037C21.3251 14.3559 21.0795 14.524 21.0317 14.7797C20.8085 15.9729 20.4704 17.1331 20.028 18.2472C19.7789 18.8749 19.4945 19.4914 19.1792 20.0878C17.9675 22.3799 16.2833 24.4159 14.2123 26.0534C14.1273 26.0556 14.0424 26.0581 13.957 26.0581C13.4188 26.0581 12.886 26.0104 12.3633 25.919ZM18.5809 22.8302C18.7841 23.381 18.9538 23.9455 19.0883 24.5166C18.1263 25.1546 17.045 25.6115 15.8938 25.8548C16.8959 24.9363 17.7952 23.9221 18.5809 22.8302ZM19.9038 23.9086C19.7225 23.2204 19.4931 22.5435 19.2189 21.8887C19.4464 21.5307 19.6627 21.1657 19.8665 20.7938H20.0808C20.4044 21.4861 20.6813 22.2044 20.9063 22.9346C20.596 23.2855 20.2606 23.6107 19.9038 23.9086ZM21.6016 22.045C21.454 21.622 21.2904 21.2041 21.1111 20.7938H22.3266C22.1149 21.2334 21.8724 21.6513 21.6016 22.045ZM29.8442 20.6289H27.9918V18.0387H29.8442C30.5554 18.0387 31.1339 18.6197 31.1339 19.3338C31.1339 20.048 30.5554 20.6289 29.8442 20.6289Z" fill="#9B51E0"/>
</symbol><symbol id="icon-discuss" viewBox="0 0 20 19">
<path d="M17.2504 0H10H2.74963C1.23352 0 0 1.23327 0 2.74963V11.6238C0 13.1367 1.22815 14.368 2.73987 14.3734V18.4004L8.5271 14.3734H17.2504C18.7665 14.3734 20 13.1399 20 11.6238V2.74963C20 1.23327 18.7665 0 17.2504 0ZM18.4211 11.5789C18.4211 12.4488 18.1204 12.6316 17.2504 12.6316H8.42105L3.91174 15.7895V12.6316H2.73987C1.86987 12.6316 1.57895 12.4936 1.57895 11.6238V2.74963C1.57895 1.87951 1.87964 1.57895 2.74963 1.57895H10H17.2504C18.1204 1.57895 18.4211 1.87951 18.4211 2.74963V11.5789Z" fill="#CCCCCC"/>
<path d="M5.3529 3.68421H14.6471V5.31262H5.3529V3.68421Z" fill="#CCCCCC"/>
<path d="M5.3529 6.31579H14.6471V7.81261H5.3529V6.31579Z" fill="#CCCCCC"/>
<path d="M5.3529 9.14074H14.6471V10.6658H5.3529V9.14074Z" fill="#CCCCCC"/>
</symbol><symbol id="icon-eye" viewBox="0 0 20 13">
<path d="M10 0C5.58869 0 1.78673 2.58677 0.0402296 6.31965C-0.0134099 6.43277 -0.0134099 6.5651 0.0402296 6.68035C1.78673 10.4132 5.58871 13 10 13C14.4113 13 18.2133 10.4132 19.9598 6.68035C20.0134 6.56723 20.0134 6.4349 19.9598 6.31965C18.2133 2.58677 14.4113 0 10 0ZM10 10.9852C7.50898 10.9852 5.49214 8.97685 5.49214 6.50107C5.49214 4.02315 7.51113 2.01691 10 2.01691C12.491 2.01691 14.5079 4.02528 14.5079 6.50107C14.5079 8.97685 12.4889 10.9852 10 10.9852Z" fill="#CCCCCC"/>
<path d="M10.0001 9.36954C11.5938 9.36954 12.8859 8.08432 12.8859 6.49891C12.8859 4.91351 11.5938 3.62828 10.0001 3.62828C8.40627 3.62828 7.11426 4.91351 7.11426 6.49891C7.11426 8.08432 8.40627 9.36954 10.0001 9.36954Z" fill="#CCCCCC"/>
</symbol><symbol id="icon-instagram" viewBox="0 0 40 40">
<path d="M20.004 9.72844C14.3312 9.72844 9.72852 14.3308 9.72852 20.0039C9.72852 25.677 14.3312 30.2794 20.004 30.2794C25.6771 30.2794 30.2795 25.677 30.2795 20.0039C30.2795 14.3308 25.6771 9.72844 20.004 9.72844ZM20.004 26.6694C16.3238 26.6694 13.3385 23.6845 13.3385 20.0039C13.3385 16.3234 16.3238 13.3385 20.004 13.3385C23.6845 13.3385 26.6694 16.3234 26.6694 20.0039C26.6694 23.6845 23.6845 26.6694 20.004 26.6694Z" fill="#CCCCCC"/>
<path d="M33.0848 9.32219C33.0848 10.6469 32.0107 11.721 30.6857 11.721C29.361 11.721 28.2868 10.6469 28.2868 9.32219C28.2868 7.99716 29.361 6.92334 30.6857 6.92334C32.0107 6.92334 33.0848 7.99716 33.0848 9.32219Z" fill="#CCCCCC"/>
<path d="M39.8907 11.7601C39.797 9.63478 39.4533 8.17362 38.961 6.9075C38.4531 5.56354 37.6717 4.3603 36.6479 3.36004C35.6476 2.34421 34.4365 1.55487 33.1081 1.0549C31.8346 0.562551 30.3811 0.218854 28.2557 0.125147C26.1145 0.0235032 25.4347 0 20.004 0C14.5732 0 13.8934 0.0235032 11.7601 0.117211C9.63478 0.210918 8.17362 0.55492 6.9078 1.04696C5.56354 1.55487 4.3603 2.33628 3.36004 3.36004C2.34421 4.3603 1.55518 5.57148 1.0549 6.89987C0.562551 8.17362 0.218854 9.62685 0.125147 11.7522C0.0235032 13.8934 0 14.5732 0 20.004C0 25.4347 0.0235032 26.1145 0.117211 28.2478C0.210918 30.3731 0.55492 31.8343 1.04727 33.1004C1.55518 34.4444 2.34421 35.6476 3.36004 36.6479C4.3603 37.6637 5.57148 38.4531 6.89987 38.953C8.17362 39.4454 9.62685 39.7891 11.7525 39.8828C13.8855 39.9768 14.5656 40 19.9963 40C25.4271 40 26.1069 39.9768 28.2402 39.8828C30.3655 39.7891 31.8267 39.4454 33.0925 38.953C35.7807 37.9137 37.9061 35.7883 38.9454 33.1004C39.4375 31.8267 39.7814 30.3731 39.8752 28.2478C39.9689 26.1145 39.9924 25.4347 39.9924 20.004C39.9924 14.5732 39.9844 13.8934 39.8907 11.7601ZM36.2886 28.0915C36.2026 30.045 35.8744 31.0999 35.6009 31.8032C34.9288 33.5458 33.5458 34.9288 31.8032 35.6009C31.0999 35.8744 30.0374 36.2026 28.0915 36.2883C25.9817 36.3823 25.349 36.4055 20.0119 36.4055C14.6748 36.4055 14.0342 36.3823 11.932 36.2883C9.97848 36.2026 8.92358 35.8744 8.22032 35.6009C7.35314 35.2804 6.5638 34.7725 5.92311 34.1083C5.25892 33.4597 4.751 32.6783 4.43051 31.8111C4.15701 31.1079 3.82888 30.045 3.74311 28.0994C3.6491 25.9897 3.6259 25.3566 3.6259 20.0195C3.6259 14.6825 3.6491 14.0418 3.74311 11.9399C3.82888 9.98642 4.15701 8.93152 4.43051 8.22826C4.751 7.36077 5.25892 6.57174 5.93105 5.93074C6.57937 5.26655 7.36077 4.75863 8.22826 4.43844C8.93152 4.16495 9.99435 3.83682 11.9399 3.75074C14.0497 3.65704 14.6828 3.63353 20.0195 3.63353C25.3645 3.63353 25.9973 3.65704 28.0994 3.75074C30.053 3.83682 31.1079 4.16495 31.8111 4.43844C32.6783 4.75863 33.4676 5.26655 34.1083 5.93074C34.7725 6.57937 35.2804 7.36077 35.6009 8.22826C35.8744 8.93152 36.2026 9.99405 36.2886 11.9399C36.3823 14.0497 36.4058 14.6825 36.4058 20.0195C36.4058 25.3566 36.3823 25.9817 36.2886 28.0915Z" fill="#CCCCCC"/>
</symbol><symbol id="icon-lifehacks" viewBox="0 0 27 27">
<path d="M13.0309 6.10022C9.19547 6.10022 6.07505 9.23375 6.07505 13.0852C6.07505 14.6615 6.58974 16.1509 7.56276 17.3916C7.75483 17.6372 7.95664 17.8722 8.17031 18.1211L8.18205 18.1348C8.83575 18.8964 9.51162 19.6842 9.76404 20.6118C9.82109 20.8243 9.8292 21.2319 9.82591 21.5458V22.0794C9.82591 22.5678 10.2201 22.9636 10.7064 22.9636H15.317C15.8033 22.9636 16.1975 22.5678 16.1975 22.0794V21.5396C16.1946 21.1296 16.2157 20.8303 16.2583 20.6751C16.5122 19.7536 17.2612 18.8688 17.928 18.0813L17.9568 18.0473C18.1492 17.8203 18.3311 17.6058 18.4966 17.3944C19.471 16.153 19.9861 14.6629 19.9861 13.0852C19.9859 9.23375 16.8659 6.10022 13.0309 6.10022ZM17.1128 16.3006C16.9678 16.4858 16.7969 16.6875 16.6158 16.901L16.5804 16.9429C15.8014 17.8629 14.9185 18.9057 14.5607 20.2047C14.5101 20.3891 14.4539 20.6649 14.4395 21.1952H11.5853C11.5731 20.632 11.5159 20.3432 11.4637 20.1487C11.1056 18.8325 10.2243 17.8055 9.51597 16.9801L9.50411 16.9662C9.30394 16.7331 9.11493 16.5129 8.94692 16.2983C8.22021 15.3717 7.83607 14.2605 7.83607 13.0852C7.83607 10.2089 10.1665 7.86864 13.0309 7.86864C15.8949 7.86864 18.2249 10.2089 18.2249 13.0852C18.2249 14.2618 17.8406 15.3734 17.1128 16.3006Z" fill="#2F80ED"/>
<path d="M15.3169 23.2146H10.7064C10.2201 23.2146 9.82591 23.6105 9.82591 24.0988C9.82591 24.5872 10.2201 24.9831 10.7064 24.9831H15.317C15.8033 24.9831 16.1975 24.5872 16.1975 24.0988C16.1975 23.6105 15.8032 23.2146 15.3169 23.2146Z" fill="#2F80ED"/>
<path d="M14.1642 25.2316H11.8591C11.3728 25.2316 10.9786 25.6275 10.9786 26.1158C10.9786 26.6041 11.3728 27 11.8591 27H14.1642C14.6505 27 15.0448 26.6041 15.0448 26.1158C15.0448 25.6275 14.6505 25.2316 14.1642 25.2316Z" fill="#2F80ED"/>
<path d="M25.1805 12.201H22.143C21.6567 12.201 21.2624 12.5969 21.2624 13.0852C21.2624 13.5736 21.6567 13.9695 22.143 13.9695H25.1805C25.6668 13.9695 26.061 13.5736 26.061 13.0852C26.061 12.5969 25.6668 12.201 25.1805 12.201Z" fill="#2F80ED"/>
<path d="M4.7989 13.0852C4.7989 12.5969 4.40466 12.201 3.91839 12.201H0.88051C0.394234 12.201 0 12.5969 0 13.0852C0 13.5736 0.394234 13.9695 0.88051 13.9695H3.91839C4.40466 13.9695 4.7989 13.5736 4.7989 13.0852Z" fill="#2F80ED"/>
<path d="M13.0306 4.81965C13.5169 4.81965 13.9111 4.42376 13.9111 3.93544V0.88421C13.9111 0.39589 13.5169 0 13.0306 0C12.5443 0 12.1501 0.39589 12.1501 0.88421V3.93544C12.1501 4.42376 12.5443 4.81965 13.0306 4.81965Z" fill="#2F80ED"/>
<path d="M20.0962 18.9302C19.7523 18.5849 19.1949 18.5848 18.8509 18.9301C18.507 19.2754 18.5069 19.8352 18.8508 20.1806L20.9988 22.3382C21.1708 22.5109 21.3961 22.5972 21.6215 22.5972C21.8468 22.5972 22.0721 22.5109 22.244 22.3383C22.5879 21.993 22.588 21.4333 22.2442 21.0878L20.0962 18.9302Z" fill="#2F80ED"/>
<path d="M5.96387 7.23968C6.13587 7.41239 6.36116 7.49881 6.58657 7.49881C6.81186 7.49881 7.03716 7.41251 7.20903 7.23991C7.55302 6.8946 7.55302 6.33483 7.20927 5.98952L5.06211 3.83252C4.71824 3.48709 4.16082 3.48709 3.81695 3.83228C3.47297 4.1776 3.47297 4.73736 3.81672 5.08267L5.96387 7.23968Z" fill="#2F80ED"/>
<path d="M5.96481 18.9302L3.81672 21.0878C3.47285 21.4331 3.47297 21.993 3.81684 22.3382C3.98871 22.5108 4.21412 22.5971 4.43942 22.5971C4.66471 22.5971 4.89012 22.5108 5.06211 22.3381L7.21021 20.1805C7.55408 19.8352 7.55396 19.2753 7.21009 18.9301C6.86622 18.5849 6.30868 18.5849 5.96481 18.9302Z" fill="#2F80ED"/>
<path d="M19.474 7.49869C19.6992 7.49869 19.9247 7.4124 20.0967 7.23968L22.2442 5.08279C22.588 4.73748 22.5879 4.1776 22.244 3.8324C21.9002 3.48709 21.3426 3.48709 20.9989 3.83252L18.8514 5.98941C18.5075 6.33472 18.5076 6.8946 18.8515 7.2398C19.0232 7.41251 19.2485 7.49869 19.474 7.49869Z" fill="#2F80ED"/>
</symbol><symbol id="icon-menu-home" viewBox="0 0 30 27">
<path d="M14.8753 0L22.8086 4.32V2.16H25.0753V5.4L29.6087 7.56L29.6089 9.72L14.8753 2.16L0.000134026 9.72L0 7.56L14.8753 0Z" fill="#C4C4C4"/>
<path d="M2.40826 9.72L14.8752 4.32L27.3421 9.72L22.8086 27H18.8419V15.12H10.9084V27H6.94168L2.40826 9.72Z" fill="#C4C4C4"/>
</symbol><symbol id="icon-menu" viewBox="0 0 30 22">
<path d="M30 17.3157H6.49351V21.6194H30V17.3157Z" fill="#F2F2F2"/>
<path d="M30 8.8387H6.49351V13.1424H30V8.8387Z" fill="#F2F2F2"/>
<path d="M30 0.10083H6.49351V4.40455H30V0.10083Z" fill="#F2F2F2"/>
<path d="M4.28571 17.4461H0V21.7498H4.28571V17.4461Z" fill="#F2F2F2"/>
<path d="M4.28571 8.8387H0V13.1424H4.28571V8.8387Z" fill="#F2F2F2"/>
<path d="M4.28571 0.10083H0V4.40455H4.28571V0.10083Z" fill="#F2F2F2"/>
</symbol><symbol id="icon-pinterest" viewBox="0 0 40 40">
<path d="M39.8907 11.7601C39.797 9.63478 39.4533 8.17362 38.961 6.9075C38.4531 5.56354 37.6717 4.3603 36.6479 3.36004C35.6476 2.34421 34.4365 1.55487 33.1081 1.0549C31.8346 0.562551 30.3811 0.218854 28.2557 0.125147C26.1145 0.0235032 25.4347 0 20.004 0C14.5732 0 13.8934 0.0235032 11.7601 0.117211C9.63478 0.210918 8.17362 0.55492 6.9078 1.04696C5.56354 1.55487 4.3603 2.33628 3.36004 3.36004C2.34421 4.3603 1.55518 5.57148 1.0549 6.89987C0.562551 8.17362 0.218854 9.62685 0.125147 11.7522C0.0235032 13.8934 0 14.5732 0 20.004C0 25.4347 0.0235032 26.1145 0.117211 28.2478C0.210918 30.3731 0.55492 31.8343 1.04727 33.1004C1.55518 34.4444 2.34421 35.6476 3.36004 36.6479C4.3603 37.6637 5.57148 38.4531 6.89987 38.953C8.17362 39.4454 9.62685 39.7891 11.7525 39.8828C13.8855 39.9768 14.5656 40 19.9963 40C25.4271 40 26.1069 39.9768 28.2402 39.8828C30.3655 39.7891 31.8267 39.4454 33.0925 38.953C35.7807 37.9137 37.9061 35.7883 38.9454 33.1004C39.4375 31.8267 39.7814 30.3731 39.8752 28.2478C39.9689 26.1145 39.9924 25.4347 39.9924 20.004C39.9924 14.5732 39.9844 13.8934 39.8907 11.7601ZM36.2886 28.0915C36.2026 30.045 35.8744 31.0999 35.6009 31.8032C34.9288 33.5458 33.5458 34.9288 31.8032 35.6009C31.0999 35.8744 30.0374 36.2026 28.0915 36.2883C25.9817 36.3823 25.349 36.4055 20.0119 36.4055C14.6748 36.4055 14.0342 36.3823 11.932 36.2883C9.97848 36.2026 8.92358 35.8744 8.22032 35.6009C7.35314 35.2804 6.5638 34.7725 5.92311 34.1083C5.25892 33.4597 4.751 32.6783 4.43051 31.8111C4.15701 31.1079 3.82888 30.045 3.74311 28.0994C3.6491 25.9897 3.6259 25.3566 3.6259 20.0195C3.6259 14.6825 3.6491 14.0418 3.74311 11.9399C3.82888 9.98642 4.15701 8.93152 4.43051 8.22826C4.751 7.36077 5.25892 6.57174 5.93105 5.93074C6.57937 5.26655 7.36077 4.75863 8.22826 4.43844C8.93152 4.16495 9.99435 3.83682 11.9399 3.75074C14.0497 3.65704 14.6828 3.63353 20.0195 3.63353C25.3645 3.63353 25.9973 3.65704 28.0994 3.75074C30.053 3.83682 31.1079 4.16495 31.8111 4.43844C32.6783 4.75863 33.4676 5.26655 34.1083 5.93074C34.7725 6.57937 35.2804 7.36077 35.6009 8.22826C35.8744 8.93152 36.2026 9.99405 36.2886 11.9399C36.3823 14.0497 36.4058 14.6825 36.4058 20.0195C36.4058 25.3566 36.3823 25.9817 36.2886 28.0915Z" fill="#CCCCCC"/>
<path d="M13.884 22.1943C14.2051 22.3264 14.4998 22.1992 14.5896 21.844C14.6599 21.5932 14.8115 20.9726 14.8827 20.7121C14.9725 20.3569 14.94 20.2346 14.6791 19.9217C14.1108 19.254 13.747 18.3872 13.747 17.1558C13.747 13.5961 16.4127 10.4047 20.6884 10.4047C24.4768 10.4047 26.5559 12.7199 26.5559 15.8118C26.5559 19.8745 24.7605 23.3021 22.085 23.3021C20.6084 23.3021 19.5088 22.0853 19.8604 20.5882C20.286 18.8041 21.1055 16.8721 21.1055 15.585C21.1055 14.4288 20.4896 13.4677 19.2059 13.4677C17.6955 13.4677 16.483 15.0262 16.483 17.1183C16.483 18.4493 16.9329 19.3486 16.9329 19.3486C16.9329 19.3486 15.3896 25.8876 15.1193 27.0329C14.5798 29.3103 15.0392 32.103 15.0769 32.3879C15.101 32.5538 15.318 32.5964 15.4139 32.4677C15.5509 32.2884 17.35 30.0727 17.9609 27.857C18.1317 27.2267 18.9512 23.9784 18.9512 23.9784C19.4385 24.9167 20.8729 25.736 22.3977 25.736C26.9306 25.736 30.0036 21.6066 30.0036 16.0772C30.0036 11.8966 26.4615 8 21.0765 8C14.3713 8 11 12.8008 11 16.8055C11 19.2345 11.919 21.3896 13.884 22.1943Z" fill="#CCCCCC"/>
</symbol><symbol id="icon-publication" viewBox="0 0 20 22">
<path d="M14.2043 9.45312C14.2043 8.97849 13.814 8.59375 13.3326 8.59375H4.35379C3.87233 8.59375 3.48206 8.97849 3.48206 9.45312C3.48206 9.92776 3.87233 10.3125 4.35379 10.3125H13.3326C13.814 10.3125 14.2043 9.92776 14.2043 9.45312Z" fill="#CCCCCC"/>
<path d="M4.35379 12.0312C3.87233 12.0312 3.48206 12.416 3.48206 12.8906C3.48206 13.3653 3.87233 13.75 4.35379 13.75H9.80691C10.2884 13.75 10.6786 13.3653 10.6786 12.8906C10.6786 12.416 10.2884 12.0312 9.80691 12.0312H4.35379Z" fill="#CCCCCC"/>
<path d="M6.40234 20.2812H3.4869C2.52556 20.2812 1.74345 19.5102 1.74345 18.5625V3.4375C1.74345 2.48978 2.52556 1.71875 3.4869 1.71875H14.2043C15.1656 1.71875 15.9477 2.48978 15.9477 3.4375V8.72266C15.9477 9.19729 16.338 9.58203 16.8195 9.58203C17.3009 9.58203 17.6912 9.19729 17.6912 8.72266V3.4375C17.6912 1.54206 16.127 0 14.2043 0H3.4869C1.56422 0 0 1.54206 0 3.4375V18.5625C0 20.4579 1.56422 22 3.4869 22H6.40234C6.88379 22 7.27407 21.6153 7.27407 21.1406C7.27407 20.666 6.88379 20.2812 6.40234 20.2812Z" fill="#CCCCCC"/>
<path d="M19.2352 12.4425C18.2156 11.4373 16.5565 11.4373 15.5375 12.4419L10.7516 17.1495C10.6499 17.2495 10.575 17.3726 10.5332 17.5081L9.49094 20.8908C9.39854 21.1907 9.47904 21.5164 9.70107 21.7407C9.8674 21.9088 10.0934 22 10.3251 22C10.4026 22 10.4809 21.9898 10.5578 21.9687L14.0763 21.0079C14.2211 20.9684 14.353 20.8926 14.4594 20.788L19.2353 16.0886C20.2549 15.0834 20.2549 13.4478 19.2352 12.4425ZM13.39 19.4119L11.6198 19.8953L12.1379 18.214L15.3671 15.0375L16.6002 16.2531L13.39 19.4119ZM18.0031 14.8728L17.8342 15.0389L16.6013 13.8236L16.7697 13.658C17.1096 13.3229 17.6626 13.3229 18.0025 13.658C18.3424 13.993 18.3424 14.5382 18.0031 14.8728Z" fill="#CCCCCC"/>
<path d="M13.3326 5.15625H4.35379C3.87233 5.15625 3.48206 5.54099 3.48206 6.01562C3.48206 6.49026 3.87233 6.875 4.35379 6.875H13.3326C13.814 6.875 14.2043 6.49026 14.2043 6.01562C14.2043 5.54099 13.814 5.15625 13.3326 5.15625Z" fill="#CCCCCC"/>
</symbol><symbol id="icon-search" viewBox="0 0 20 19">
<path d="M19 17.5049L15.4418 14.374M17.5049 9.25246C17.5049 13.8102 13.8102 17.5049 9.25246 17.5049C4.69475 17.5049 1 13.8102 1 9.25246C1 4.69475 4.69475 1 9.25246 1C13.8102 1 17.5049 4.69475 17.5049 9.25246Z" stroke="#CCCCCC" stroke-width="2"/>
</symbol><symbol id="icon-twitter" viewBox="0 0 40 40">
<path d="M39.8907 11.7601C39.797 9.63478 39.4533 8.17362 38.961 6.9075C38.4531 5.56354 37.6717 4.3603 36.6479 3.36004C35.6476 2.34421 34.4365 1.55487 33.1081 1.0549C31.8346 0.562551 30.3811 0.218854 28.2557 0.125147C26.1145 0.0235032 25.4347 0 20.004 0C14.5732 0 13.8934 0.0235032 11.7601 0.117211C9.63478 0.210918 8.17362 0.55492 6.9078 1.04696C5.56354 1.55487 4.3603 2.33628 3.36004 3.36004C2.34421 4.3603 1.55518 5.57148 1.0549 6.89987C0.562551 8.17362 0.218854 9.62685 0.125147 11.7522C0.0235032 13.8934 0 14.5732 0 20.004C0 25.4347 0.0235032 26.1145 0.117211 28.2478C0.210918 30.3731 0.55492 31.8343 1.04727 33.1004C1.55518 34.4444 2.34421 35.6476 3.36004 36.6479C4.3603 37.6637 5.57148 38.4531 6.89987 38.953C8.17362 39.4454 9.62685 39.7891 11.7525 39.8828C13.8855 39.9768 14.5656 40 19.9963 40C25.4271 40 26.1069 39.9768 28.2402 39.8828C30.3655 39.7891 31.8267 39.4454 33.0925 38.953C35.7807 37.9137 37.9061 35.7883 38.9454 33.1004C39.4375 31.8267 39.7814 30.3731 39.8752 28.2478C39.9689 26.1145 39.9924 25.4347 39.9924 20.004C39.9924 14.5732 39.9844 13.8934 39.8907 11.7601ZM36.2886 28.0915C36.2026 30.045 35.8744 31.0999 35.6009 31.8032C34.9288 33.5458 33.5458 34.9288 31.8032 35.6009C31.0999 35.8744 30.0374 36.2026 28.0915 36.2883C25.9817 36.3823 25.349 36.4055 20.0119 36.4055C14.6748 36.4055 14.0342 36.3823 11.932 36.2883C9.97848 36.2026 8.92358 35.8744 8.22032 35.6009C7.35314 35.2804 6.5638 34.7725 5.92311 34.1083C5.25892 33.4597 4.751 32.6783 4.43051 31.8111C4.15701 31.1079 3.82888 30.045 3.74311 28.0994C3.6491 25.9897 3.6259 25.3566 3.6259 20.0195C3.6259 14.6825 3.6491 14.0418 3.74311 11.9399C3.82888 9.98642 4.15701 8.93152 4.43051 8.22826C4.751 7.36077 5.25892 6.57174 5.93105 5.93074C6.57937 5.26655 7.36077 4.75863 8.22826 4.43844C8.93152 4.16495 9.99435 3.83682 11.9399 3.75074C14.0497 3.65704 14.6828 3.63353 20.0195 3.63353C25.3645 3.63353 25.9973 3.65704 28.0994 3.75074C30.053 3.83682 31.1079 4.16495 31.8111 4.43844C32.6783 4.75863 33.4676 5.26655 34.1083 5.93074C34.7725 6.57937 35.2804 7.36077 35.6009 8.22826C35.8744 8.93152 36.2026 9.99405 36.2886 11.9399C36.3823 14.0497 36.4058 14.6825 36.4058 20.0195C36.4058 25.3566 36.3823 25.9817 36.2886 28.0915Z" fill="#CCCCCC"/>
<path d="M15.5478 29.5049C24.6048 29.5049 29.5577 22.0014 29.5577 15.4949C29.5577 15.2818 29.5533 15.0696 29.5438 14.8585C30.5051 14.1634 31.3407 13.296 32 12.3087C31.1178 12.701 30.1682 12.9648 29.1723 13.0841C30.1889 12.4743 30.9694 11.51 31.3375 10.3605C30.3861 10.9245 29.3325 11.3343 28.2108 11.5556C27.3123 10.5985 26.0329 10 24.6164 10C21.8974 10 19.6922 12.2051 19.6922 14.9233C19.6922 15.3099 19.7354 15.6856 19.8198 16.046C15.7274 15.8401 12.0984 13.8809 9.6701 10.9015C9.2474 11.629 9.00347 12.4744 9.00347 13.3764C9.00347 15.0846 9.87279 16.5929 11.1946 17.475C10.3868 17.4502 9.62797 17.2284 8.96457 16.8593C8.96384 16.88 8.96384 16.9001 8.96384 16.9221C8.96384 19.3068 10.6611 21.2979 12.9145 21.7491C12.5006 21.8617 12.0651 21.9223 11.616 21.9223C11.2992 21.9223 10.9904 21.8912 10.6904 21.8335C11.3173 23.7899 13.1352 25.2136 15.2904 25.2535C13.605 26.5745 11.482 27.3613 9.1746 27.3613C8.77773 27.3613 8.38542 27.3385 8 27.293C10.1792 28.6899 12.7668 29.5049 15.5478 29.5049Z" fill="#CCCCCC"/>
</symbol><symbol id="icon-vk" viewBox="0 0 40 40">
<path d="M30.9566 23.8203C30.434 23.1931 29.8402 22.6309 29.266 22.0872C29.0618 21.8939 28.8506 21.694 28.6471 21.4952C28.0628 20.9239 28.0415 20.7092 28.5041 20.0603C28.8242 19.613 29.1636 19.1651 29.4917 18.732C29.7894 18.339 30.0973 17.9326 30.3923 17.5248L30.4529 17.441C31.0168 16.6608 31.6 15.854 31.9103 14.8807C31.9909 14.6239 32.0755 14.246 31.882 13.9301C31.6887 13.6144 31.3136 13.5181 31.0482 13.4731C30.9169 13.4508 30.7866 13.4478 30.6656 13.4478L26.9728 13.4451L26.9423 13.4449C26.3839 13.4449 26.0076 13.708 25.792 14.2493C25.5862 14.7666 25.36 15.3174 25.102 15.8411C24.5885 16.8841 23.9364 18.0852 22.9927 19.0871L22.9528 19.1297C22.8413 19.2494 22.7151 19.3851 22.6228 19.3851C22.6087 19.3851 22.5933 19.3823 22.5758 19.3769C22.3804 19.3007 22.2492 18.8275 22.2551 18.6074C22.2552 18.6043 22.2552 18.6013 22.2552 18.5983L22.2527 14.3301C22.2527 14.3153 22.2516 14.3006 22.2497 14.2859C22.1557 13.5921 21.9477 13.1602 21.1614 13.0062C21.1405 13.002 21.1192 13 21.0979 13H17.258C16.6325 13 16.2877 13.2543 15.9637 13.6348C15.8763 13.7366 15.6942 13.9484 15.7844 14.2053C15.876 14.466 16.1732 14.5218 16.27 14.5399C16.7504 14.6313 17.0212 14.9251 17.0979 15.4386C17.2318 16.3301 17.2482 17.2817 17.1496 18.4334C17.1222 18.7534 17.0678 19.0006 16.9782 19.2118C16.9574 19.2611 16.8836 19.422 16.8084 19.4221C16.7845 19.4221 16.7153 19.4127 16.5893 19.3259C16.2914 19.1218 16.0735 18.8306 15.8194 18.4709C14.9551 17.2494 14.2297 15.9037 13.6014 14.3561C13.3684 13.7864 12.9333 13.4674 12.3756 13.4581C11.7628 13.4488 11.2073 13.4443 10.6774 13.4443C10.0984 13.4443 9.56168 13.4496 9.03756 13.4605C8.58887 13.4684 8.27851 13.6029 8.11521 13.8606C7.95165 14.1184 7.96228 14.4571 8.14686 14.8671C9.62438 18.1518 10.964 20.5401 12.4907 22.6113C13.5604 24.0605 14.6334 25.0637 15.867 25.7679C17.1667 26.5114 18.6232 26.8729 20.3196 26.8729C20.5119 26.8729 20.7108 26.8682 20.9113 26.8589C21.897 26.8108 22.2628 26.454 22.309 25.4942C22.331 25.0037 22.3846 24.4893 22.6258 24.0506C22.778 23.7742 22.9199 23.7742 22.9665 23.7742C23.0564 23.7742 23.1677 23.8156 23.2874 23.8931C23.5019 24.0331 23.6859 24.2207 23.8367 24.3846C23.9787 24.5403 24.1191 24.6976 24.2596 24.855C24.5628 25.1946 24.8763 25.5457 25.2039 25.8787C25.9208 26.6081 26.7105 26.9289 27.6176 26.8593H31.0034C31.0106 26.8593 31.0178 26.859 31.025 26.8585C31.3624 26.8363 31.6546 26.6491 31.8267 26.3451C32.0399 25.9685 32.0356 25.488 31.8152 25.0596C31.5651 24.5751 31.2408 24.1611 30.9566 23.8203Z" fill="#CCCCCC"/>
<path d="M39.8907 11.7601C39.797 9.63478 39.4533 8.17362 38.961 6.9075C38.4531 5.56354 37.6717 4.3603 36.6479 3.36004C35.6476 2.34421 34.4365 1.55487 33.1081 1.0549C31.8346 0.562551 30.3811 0.218854 28.2557 0.125147C26.1145 0.0235032 25.4347 0 20.004 0C14.5732 0 13.8934 0.0235032 11.7601 0.117211C9.63478 0.210918 8.17362 0.55492 6.9078 1.04696C5.56354 1.55487 4.3603 2.33628 3.36004 3.36004C2.34421 4.3603 1.55518 5.57148 1.0549 6.89987C0.562551 8.17362 0.218854 9.62685 0.125147 11.7522C0.0235032 13.8934 0 14.5732 0 20.004C0 25.4347 0.0235032 26.1145 0.117211 28.2478C0.210918 30.3731 0.55492 31.8343 1.04727 33.1004C1.55518 34.4444 2.34421 35.6476 3.36004 36.6479C4.3603 37.6637 5.57148 38.4531 6.89987 38.953C8.17362 39.4454 9.62685 39.7891 11.7525 39.8828C13.8855 39.9768 14.5656 40 19.9963 40C25.4271 40 26.1069 39.9768 28.2402 39.8828C30.3655 39.7891 31.8267 39.4454 33.0925 38.953C35.7807 37.9137 37.9061 35.7883 38.9454 33.1004C39.4375 31.8267 39.7814 30.3731 39.8752 28.2478C39.9689 26.1145 39.9924 25.4347 39.9924 20.004C39.9924 14.5732 39.9844 13.8934 39.8907 11.7601ZM36.2886 28.0915C36.2026 30.045 35.8744 31.0999 35.6009 31.8032C34.9288 33.5458 33.5458 34.9288 31.8032 35.6009C31.0999 35.8744 30.0374 36.2026 28.0915 36.2883C25.9817 36.3823 25.349 36.4055 20.0119 36.4055C14.6748 36.4055 14.0342 36.3823 11.932 36.2883C9.97848 36.2026 8.92358 35.8744 8.22032 35.6009C7.35314 35.2804 6.5638 34.7725 5.92311 34.1083C5.25892 33.4597 4.751 32.6783 4.43051 31.8111C4.15701 31.1079 3.82888 30.045 3.74311 28.0994C3.6491 25.9897 3.6259 25.3566 3.6259 20.0195C3.6259 14.6825 3.6491 14.0418 3.74311 11.9399C3.82888 9.98642 4.15701 8.93152 4.43051 8.22826C4.751 7.36077 5.25892 6.57174 5.93105 5.93074C6.57937 5.26655 7.36077 4.75863 8.22826 4.43844C8.93152 4.16495 9.99435 3.83682 11.9399 3.75074C14.0497 3.65704 14.6828 3.63353 20.0195 3.63353C25.3645 3.63353 25.9973 3.65704 28.0994 3.75074C30.053 3.83682 31.1079 4.16495 31.8111 4.43844C32.6783 4.75863 33.4676 5.26655 34.1083 5.93074C34.7725 6.57937 35.2804 7.36077 35.6009 8.22826C35.8744 8.93152 36.2026 9.99405 36.2886 11.9399C36.3823 14.0497 36.4058 14.6825 36.4058 20.0195C36.4058 25.3566 36.3823 25.9817 36.2886 28.0915Z" fill="#CCCCCC"/>
</symbol><symbol id="icon-workshops" viewBox="0 0 27 27">
<path d="M18.2139 8.18171C17.924 8.18171 17.6887 8.41737 17.6887 8.70885C17.6887 9.00013 17.924 9.2362 18.2139 9.2362C18.5043 9.2362 18.739 9.00013 18.739 8.70885C18.739 8.41737 18.5043 8.18171 18.2139 8.18171Z" fill="#EB5757"/>
<path d="M8.67236 17.7631C8.3819 17.7631 8.14723 17.9994 8.14723 18.2905C8.14723 18.5821 8.3819 18.8178 8.67236 18.8178C8.96222 18.8178 9.1975 18.5821 9.1975 18.2905C9.1975 17.9994 8.96222 17.7631 8.67236 17.7631Z" fill="#EB5757"/>
<path d="M26.2337 3.24425C26.0565 3.20284 25.8702 3.25661 25.7422 3.38638L23.5652 5.5899H22.5214L21.3725 4.39452V3.33179L23.5184 1.14476C23.6454 1.01539 23.6971 0.829381 23.655 0.652433C23.6132 0.47569 23.4835 0.333142 23.312 0.275052C22.7729 0.0925413 22.2088 5.00327e-05 21.6351 5.00327e-05C19.9247 5.00327e-05 18.3708 0.800954 17.3718 2.19739C16.4368 3.50462 16.1486 5.10664 16.5615 6.63985L12.6934 10.5243L6.24894 4.03794V2.7649C6.24894 2.57971 6.15211 2.40791 5.99396 2.31274L2.28086 0.0752378C2.07409 -0.0493885 1.80967 -0.0166355 1.63941 0.154545L0.154259 1.64574C-0.0160003 1.81692 -0.0486163 2.08244 0.0752835 2.29008L2.30302 6.01878C2.39779 6.1776 2.56866 6.27462 2.75308 6.27483L4.02038 6.27524L10.4654 12.7616L6.61202 16.6312C5.08522 16.2167 3.48909 16.5065 2.18671 17.4461C0.796938 18.4487 0 20.0086 0 21.7262C0 22.3022 0.0921043 22.8689 0.273851 23.41C0.331904 23.5833 0.475291 23.7141 0.652525 23.7553C0.829964 23.7967 1.01602 23.7429 1.14423 23.6131L3.32109 21.4098H4.37054L5.56626 22.6106V23.6644L3.37216 25.8504C3.24293 25.9792 3.18939 26.166 3.23062 26.3442C3.27165 26.5222 3.40191 26.6662 3.57442 26.7245C4.11331 26.907 4.67762 26.9995 5.25117 26.9995C6.96156 26.9995 8.51482 26.199 9.51341 24.8034C10.449 23.4955 10.7376 21.8929 10.3249 20.3597L13.4197 17.2518L14.1287 18.0251L13.8033 18.3516C13.5982 18.5576 13.5982 18.8915 13.8033 19.0975C14.0085 19.3033 14.3408 19.3033 14.5461 19.0975L14.8407 18.8017L21.4923 26.0572C21.4972 26.0626 21.5023 26.0677 21.5075 26.0729C22.7383 27.3089 24.7324 27.3093 25.9638 26.0727C27.1917 24.839 27.1917 22.8316 25.9638 21.5979C25.9584 21.5925 25.9529 21.5874 25.9473 21.5822L18.7109 14.9154L19.0022 14.6229C19.2073 14.4171 19.2073 14.0832 19.0022 13.8772C18.7971 13.6712 18.4648 13.6712 18.2594 13.8772L17.9363 14.2019L17.1648 13.4908L20.2746 10.3679C20.7167 10.4866 21.1729 10.5467 21.6351 10.5467C24.5307 10.5467 26.8862 8.1811 26.8862 5.27349C26.8862 4.69733 26.7941 4.13085 26.6124 3.58949C26.5543 3.41625 26.4109 3.28545 26.2337 3.24425ZM4.60993 5.37546C4.51147 5.27638 4.37793 5.22591 4.23844 5.22591L3.05072 5.2255L1.18689 2.10057L2.09214 1.19152L5.19866 3.06359V4.2563C5.19866 4.39596 5.25384 4.52986 5.3521 4.62873L11.9508 11.2702L11.208 12.0159L4.60993 5.37546ZM17.9675 15.662L25.2286 22.3512C26.0397 23.1744 26.0372 24.5071 25.221 25.3272C24.4029 26.1487 23.0786 26.1512 22.2572 25.3344L15.5839 18.0552L17.9675 15.662ZM17.1929 14.9482L14.8719 17.2786L14.1629 16.5053L16.4214 14.2371L17.1929 14.9482ZM21.6351 9.49204C21.1758 9.49204 20.7241 9.41809 20.2929 9.27225C20.104 9.20859 19.8951 9.25762 19.754 9.39914C17.1213 12.0429 11.4486 17.7392 9.35976 19.8371C9.21863 19.9788 9.1696 20.1885 9.2334 20.3784C9.66992 21.6801 9.4611 23.0685 8.66026 24.1881C7.86168 25.3043 6.61899 25.9448 5.25117 25.9448C5.09753 25.9448 4.94471 25.9363 4.79332 25.9201L6.46125 24.2581C6.56053 24.1592 6.61653 24.0245 6.61653 23.8838V22.392C6.61653 22.2521 6.56115 22.118 6.46268 22.0191L4.95927 20.5094C4.86081 20.4105 4.72727 20.3549 4.58798 20.3549H3.10242C2.96231 20.3549 2.82815 20.4112 2.72949 20.5109L1.07469 22.1858C1.05828 22.0338 1.05007 21.8803 1.05007 21.726C1.05007 20.3522 1.68762 19.1045 2.79944 18.3026C3.91412 17.4984 5.29692 17.2885 6.59335 17.7271C6.78228 17.7911 6.9911 17.7419 7.13223 17.6002C7.16116 17.5713 17.5191 7.16967 17.5265 7.16225C17.6676 7.02053 17.7164 6.81103 17.6528 6.6211C17.2161 5.31943 17.4245 3.93144 18.2247 2.81269C19.0239 1.69538 20.2668 1.05474 21.6349 1.05474C21.7932 1.05474 21.9506 1.0636 22.1065 1.0809L20.4732 2.74554C20.3764 2.84421 20.3222 2.97707 20.3222 3.1155V4.60731C20.3222 4.74409 20.3749 4.87531 20.4695 4.97357L21.9204 6.48329C22.0193 6.58629 22.1557 6.64438 22.2983 6.64438H23.7838C23.9237 6.64438 24.0579 6.58835 24.1565 6.48844L25.8113 4.81371C25.8278 4.96574 25.836 5.1192 25.836 5.27349C25.836 7.59958 23.9514 9.49204 21.6351 9.49204Z" fill="#EB5757"/>
<path d="M16.3574 9.8274L9.78603 16.4264C9.5811 16.6322 9.5811 16.9661 9.78603 17.1721C9.99116 17.3781 10.3237 17.3781 10.5288 17.1721L17.1002 10.5731C17.3053 10.3673 17.3053 10.0334 17.1002 9.8274C16.8951 9.62141 16.5626 9.62141 16.3574 9.8274Z" fill="#EB5757"/>
<path d="M22.9935 23.836C23.1986 24.0414 23.5311 24.0414 23.7362 23.8348C23.941 23.6286 23.9403 23.2947 23.735 23.0891L19.0016 18.351C18.7962 18.1454 18.4635 18.1461 18.259 18.3523C18.0541 18.5587 18.0547 18.8924 18.26 19.0979L22.9935 23.836Z" fill="#EB5757"/>
</symbol></svg>