<svg width="20" height="19" viewBox="0 0 20 19" fill="none" xmlns="http://www.w3.org/2000/svg">
<path d="M17.2504 0H10H2.74963C1.23352 0 0 1.23327 0 2.74963V11.6238C0 13.1367 1.22815 14.368 2.73987 14.3734V18.4004L8.5271 14.3734H17.2504C18.7665 14.3734 20 13.1399 20 11.6238V2.74963C20 1.23327 18.7665 0 17.2504 0ZM18.4211 11.5789C18.4211 12.4488 18.1204 12.6316 17.2504 12.6316H8.42105L3.91174 15.7895V12.6316H2.73987C1.86987 12.6316 1.57895 12.4936 1.57895 11.6238V2.74963C1.57895 1.87951 1.87964 1.57895 2.74963 1.57895H10H17.2504C18.1204 1.57895 18.4211 1.87951 18.4211 2.74963V11.5789Z" fill="#CCCCCC"/>
<path d="M5.3529 3.68421H14.6471V5.31262H5.3529V3.68421Z" fill="#CCCCCC"/>
<path d="M5.3529 6.31579H14.6471V7.81261H5.3529V6.31579Z" fill="#CCCCCC"/>
<path d="M5.3529 9.14074H14.6471V10.6658H5.3529V9.14074Z" fill="#CCCCCC"/>
</svg>
