<svg width="30" height="27" viewBox="0 0 30 27" fill="none" xmlns="http://www.w3.org/2000/svg">
<path d="M25.2002 9.25012V8.19382L29.0892 8.01246V6.05275L25.2002 5.87187V5.0587H22.1595V1.47418C22.1595 0.661892 21.5013 0 20.6931 0H8.39562C7.58698 0 6.92874 0.661408 6.92874 1.47418V5.0587H3.88848V5.87195L0 6.05275V8.01246L3.88848 8.19382V9.25012H6.92874V11.5275H3.88848V12.3388L0 12.5206V14.4793L3.88848 14.6614V15.7175H6.92874V18.2389H3.88848V19.0525L0 19.2339V21.1926L3.88848 21.3737V22.4304H6.92874V25.5274C6.92874 26.3404 7.58689 27 8.39562 27H20.6931C21.5013 27 22.1595 26.3404 22.1595 25.5274V22.4304H25.2003V21.3737L29.0892 21.1926V19.2339L25.2003 19.0524V18.2388H22.1595V15.7174H25.2002V14.6613L29.0892 14.4792V12.5205L25.2002 12.3387V11.5274H22.1595V9.25004L25.2002 9.25012ZM22.281 5.8322H24.4292V6.61013L28.3187 6.79222V7.27299L24.4292 7.45507V8.47557H22.281V5.8322ZM6.80868 8.47557H4.65923V7.45556L0.770341 7.27355V6.79278L4.65931 6.6107V5.83276H6.8082L6.80868 8.47557ZM6.80868 14.9432H4.65923V13.9239L0.770261 13.7418V13.26L4.65923 13.0779V12.3H6.80812L6.80868 14.9432ZM6.80868 21.6545H4.65923V20.6338L0.770261 20.4522V19.9713L4.65923 19.7898V19.0125H6.80812L6.80868 21.6545ZM9.62521 3.83943C9.10035 3.83943 8.67266 3.41042 8.67266 2.88279C8.67266 2.35476 9.09987 1.92689 9.62521 1.92689C10.1505 1.92689 10.5771 2.35476 10.5771 2.88279C10.577 3.41034 10.1501 3.83943 9.62521 3.83943ZM22.281 19.0125H24.4292V19.7898L28.3187 19.9713V20.4522L24.4292 20.6338V21.6545H22.281V19.0125ZM22.281 12.3006H24.4292V13.0785L28.3187 13.2605V13.7426L24.4292 13.9244V14.9442H22.281V12.3006Z" fill="#219653"/>
</svg>
