<svg width="30" height="27" viewBox="0 0 30 27" fill="none" xmlns="http://www.w3.org/2000/svg">
<path d="M14.228 11.0829H6.67037C5.58774 11.0829 4.70701 11.969 4.70701 13.0583V18.3041C4.70701 19.3933 5.58774 20.2795 6.67037 20.2795H14.228C15.3107 20.2795 16.1914 19.3933 16.1914 18.3041V13.0583C16.1914 11.969 15.3107 11.0829 14.228 11.0829ZM15.0195 18.3041C15.0195 18.7432 14.6644 19.1004 14.228 19.1004H6.67037C6.23397 19.1004 5.87889 18.7432 5.87889 18.3041V13.0583C5.87889 12.6192 6.23397 12.262 6.67037 12.262H14.228C14.6644 12.262 15.0195 12.6192 15.0195 13.0583V18.3041Z" fill="#F2994A"/>
<path d="M11.5202 15.1707L9.9641 14.2668C9.78281 14.1614 9.55945 14.1614 9.37816 14.2668C9.19687 14.372 9.08519 14.5667 9.08519 14.7773V16.5851C9.08519 16.7957 9.19687 16.9903 9.37816 17.0956C9.46881 17.1483 9.56994 17.1746 9.67113 17.1746C9.77232 17.1746 9.87345 17.1483 9.9641 17.0956L11.5202 16.1917C11.7015 16.0864 11.8132 15.8918 11.8132 15.6812C11.8132 15.4706 11.7015 15.276 11.5202 15.1707Z" fill="#F2994A"/>
<path d="M29.6846 3.89847L22.3675 0.0665863C22.1978 -0.0221954 21.996 -0.0221954 21.8264 0.0665863L14.5092 3.89847C14.3154 3.99998 14.1938 4.20154 14.1938 4.42137C14.1938 4.6412 14.3154 4.84276 14.5092 4.94428L17.3266 6.41973V7.66373H5.56641C3.40172 7.66373 1.64062 9.4356 1.64062 11.6135V22.5196H0.585938C0.262383 22.5196 0 22.7836 0 23.1092C0 25.2546 1.73478 27 3.86719 27H22.9688C25.1012 27 26.8359 25.2546 26.8359 23.1092C26.8359 22.7836 26.5736 22.5196 26.25 22.5196H25.1953V11.6135C25.1953 11.5309 25.1918 11.4483 25.1867 11.3659L26.5103 10.8002C26.7267 10.7078 26.8672 10.4941 26.8672 10.2576V6.41973L28.8281 5.39278V9.00082C28.8281 9.32636 29.0905 9.59034 29.4141 9.59034C29.7376 9.59034 30 9.32636 30 9.00082V4.42137C30 4.20148 29.8784 3.99992 29.6846 3.89847ZM24.0234 22.5196H16.0547C15.7311 22.5196 15.4688 22.7836 15.4688 23.1092C15.4688 23.4347 15.7311 23.6987 16.0547 23.6987H25.5999C25.3316 24.9114 24.2537 25.821 22.9688 25.821H3.86719C2.58217 25.821 1.50434 24.9114 1.23604 23.6987H10.7812C11.1048 23.6987 11.3672 23.4347 11.3672 23.1092C11.3672 22.7836 11.1048 22.5196 10.7812 22.5196H2.8125V11.6135C2.8125 10.0857 4.04789 8.84277 5.56641 8.84277H17.3266V10.2576C17.3266 10.4941 17.4671 10.7078 17.6835 10.8002L21.8679 12.5884C21.9411 12.6197 22.019 12.6353 22.0969 12.6353C22.1749 12.6353 22.2528 12.6197 22.326 12.5884L24.0234 11.863V22.5196ZM25.6953 9.86754L22.0969 11.4054L18.4985 9.86754V7.03342L21.8264 8.77616C21.9112 8.82055 22.0041 8.84277 22.0969 8.84277C22.1898 8.84277 22.2827 8.82055 22.3675 8.77616L25.6953 7.03342V9.86754ZM22.0969 7.58863L16.0488 4.42137L22.0969 1.25406L28.145 4.42137L22.0969 7.58863Z" fill="#F2994A"/>
<path d="M21.6826 4.00451C21.5736 4.11416 21.5109 4.26625 21.5109 4.4213C21.5109 4.57634 21.5736 4.72844 21.6826 4.83803C21.7916 4.94768 21.9428 5.01082 22.0969 5.01082C22.251 5.01082 22.4021 4.94774 22.5111 4.83803C22.6201 4.72844 22.6828 4.57634 22.6828 4.4213C22.6828 4.26625 22.6201 4.11416 22.5111 4.00451C22.4021 3.89486 22.2515 3.83178 22.0969 3.83178C21.9428 3.83184 21.7916 3.89486 21.6826 4.00451Z" fill="#F2994A"/>
<path d="M21.7774 19.1004H18.5742C18.2507 19.1004 17.9883 19.3644 17.9883 19.69C17.9883 20.0155 18.2507 20.2795 18.5742 20.2795H21.7774C22.1009 20.2795 22.3633 20.0155 22.3633 19.69C22.3633 19.3644 22.1009 19.1004 21.7774 19.1004Z" fill="#F2994A"/>
<path d="M21.7774 16.2708H18.5742C18.2507 16.2708 17.9883 16.5347 17.9883 16.8603C17.9883 17.1858 18.2507 17.4498 18.5742 17.4498H21.7774C22.1009 17.4498 22.3633 17.1858 22.3633 16.8603C22.3633 16.5347 22.1009 16.2708 21.7774 16.2708Z" fill="#F2994A"/>
<path d="M13.418 22.5197C13.2639 22.5197 13.1127 22.5827 13.0037 22.6924C12.8947 22.8021 12.832 22.9535 12.832 23.1092C12.832 23.2642 12.8947 23.4163 13.0037 23.5259C13.1127 23.6356 13.2639 23.6987 13.418 23.6987C13.5721 23.6987 13.7232 23.6356 13.8322 23.5259C13.9412 23.4163 14.0039 23.2642 14.0039 23.1092C14.0039 22.9541 13.9412 22.802 13.8322 22.6924C13.7232 22.5827 13.5721 22.5197 13.418 22.5197Z" fill="#F2994A"/>
</svg>
