<svg width="20" height="13" viewBox="0 0 20 13" fill="none" xmlns="http://www.w3.org/2000/svg">
<path d="M10 0C5.58869 0 1.78673 2.58677 0.0402296 6.31965C-0.0134099 6.43277 -0.0134099 6.5651 0.0402296 6.68035C1.78673 10.4132 5.58871 13 10 13C14.4113 13 18.2133 10.4132 19.9598 6.68035C20.0134 6.56723 20.0134 6.4349 19.9598 6.31965C18.2133 2.58677 14.4113 0 10 0ZM10 10.9852C7.50898 10.9852 5.49214 8.97685 5.49214 6.50107C5.49214 4.02315 7.51113 2.01691 10 2.01691C12.491 2.01691 14.5079 4.02528 14.5079 6.50107C14.5079 8.97685 12.4889 10.9852 10 10.9852Z" fill="#CCCCCC"/>
<path d="M10.0001 9.36954C11.5938 9.36954 12.8859 8.08432 12.8859 6.49891C12.8859 4.91351 11.5938 3.62828 10.0001 3.62828C8.40627 3.62828 7.11426 4.91351 7.11426 6.49891C7.11426 8.08432 8.40627 9.36954 10.0001 9.36954Z" fill="#CCCCCC"/>
</svg>
