<svg width="33" height="27" viewBox="0 0 33 27" fill="none" xmlns="http://www.w3.org/2000/svg">
<path d="M29.8442 17.0968H27.8354C27.4071 17.0968 27.0584 17.4447 27.0542 17.8739H24.1303C24.1728 17.4915 24.1948 17.1049 24.1948 16.7193C24.1948 13.497 22.6893 10.4715 20.146 8.53061L22.8498 5.31932C22.9952 5.44022 23.1717 5.49966 23.3477 5.49966C23.5699 5.49966 23.7908 5.40531 23.9452 5.22194L25.2422 3.68149C26.0352 2.73951 25.9173 1.32531 24.9794 0.52889C24.5251 0.143164 23.9481 -0.0418979 23.3552 0.00798465C22.7623 0.0578672 22.2241 0.336593 21.84 0.792834L20.5429 2.33315C20.4081 2.49324 20.3435 2.69649 20.3609 2.90545C20.3781 3.11171 20.4736 3.29898 20.6294 3.43397L17.551 7.09018C16.4035 6.65778 15.1958 6.4385 13.957 6.4385C8.31183 6.4385 3.71921 11.0505 3.71921 16.7193C3.71921 17.246 3.75962 17.7727 3.83873 18.2909L0.579174 18.679C0.243546 18.7191 -6.26284e-05 18.9944 1.20776e-08 19.3339C1.20776e-08 19.6733 0.243671 19.9486 0.579236 19.9886L4.41365 20.4451C4.67122 21.1099 4.99714 21.7472 5.38733 22.3453L4.06725 24.3516C3.88095 24.6349 3.93313 24.9995 4.19121 25.2186C4.44885 25.4373 4.81561 25.429 5.06304 25.1971L6.5443 23.809C8.47312 25.8413 11.1524 27 13.957 27C16.0341 27 18.0341 26.3788 19.7407 25.2035C21.3448 24.0987 22.5906 22.5769 23.3574 20.7937H27.0543C27.0586 21.2229 27.4071 21.5708 27.8355 21.5708H29.8444C31.0727 21.5708 32.072 20.5672 32.072 19.3337C32.072 18.1003 31.0726 17.0968 29.8442 17.0968ZM20.3494 19.8519C20.4801 19.5772 20.7834 18.8842 20.8115 18.8158H27.0538V19.8519H20.3494ZM19.2199 11.2925C19.2199 17.1443 16.1117 22.6164 11.1001 25.6054C10.6016 25.4436 10.1178 25.2401 9.6539 24.9969C11.7127 23.9353 13.4693 22.4373 14.8317 20.6468C14.8433 20.6345 14.8545 20.6216 14.8648 20.608C15.5061 19.749 16.0907 18.8244 16.5246 17.8524C17.4707 15.8373 17.9888 13.6048 17.9888 11.2924C17.9888 11.2262 17.9884 11.1602 17.9876 11.0941L19.1462 9.71804C19.195 10.2405 19.2199 10.7671 19.2199 11.2925ZM12.8788 15.7028L11.0508 17.8739H9.69963L11.9801 15.1654C12.2859 15.3336 12.5863 15.5131 12.8788 15.7028ZM13.6541 16.2408C14.3023 16.7248 14.9123 17.2652 15.4775 17.8583C15.4749 17.8635 15.4721 17.8687 15.4694 17.8739H12.279L13.6541 16.2408ZM21.3455 4.04244L22.1333 4.71142L16.2835 11.6592C15.9988 11.46 15.71 11.2678 15.4161 11.0846L21.3455 4.04244ZM22.5563 1.40092C22.7786 1.13679 23.0902 0.97538 23.4335 0.946507C23.7772 0.917823 24.1107 1.02476 24.3738 1.24813C24.9168 1.70921 24.9851 2.52797 24.5259 3.07334L23.3298 4.49396L21.3602 2.82148L22.5563 1.40092ZM4.65719 16.7193C4.65719 11.5697 8.82905 7.38035 13.957 7.38035C14.9688 7.38035 15.9572 7.54164 16.9034 7.85924L14.5953 10.6006C13.5241 10.0036 12.3982 9.50876 11.2244 9.12065C10.9785 9.0395 10.7133 9.17361 10.6323 9.4207C10.5513 9.66778 10.6851 9.93399 10.9311 10.0153C13.1141 10.737 15.1237 11.8472 16.9088 13.3141C16.8444 13.7715 16.7588 14.2235 16.652 14.6687C14.2785 12.5653 11.4018 11.1537 8.29498 10.5741C8.04028 10.5268 7.79554 10.6954 7.74819 10.9511C7.70089 11.2068 7.86896 11.4526 8.12359 11.5002C11.2123 12.0764 14.0607 13.5223 16.3695 15.6835C16.2329 16.1127 16.0764 16.5342 15.9014 16.9469C13.9697 15.0124 11.5772 13.6356 8.93936 12.9484C8.68855 12.8831 8.43272 13.0343 8.36764 13.2861C8.30262 13.5378 8.45314 13.7948 8.70383 13.8602C9.53795 14.0775 10.3459 14.3684 11.1201 14.7279L8.47131 17.8739H7.36934C7.35092 17.8739 7.33244 17.875 7.31409 17.8771L4.77082 18.18C4.69578 17.6988 4.65719 17.2092 4.65719 16.7193ZM7.39715 18.8158H14.9444C14.7288 19.1709 14.4983 19.5166 14.2531 19.8519H7.39709L3.04633 19.3338L7.39715 18.8158ZM5.48442 20.5726L6.4759 20.6907L5.95611 21.4807C5.78228 21.1868 5.62493 20.8836 5.48442 20.5726ZM7.53233 20.7938H8.38681L6.15793 22.8826L7.53233 20.7938ZM7.22996 23.1663L9.76158 20.7937H13.503C12.1949 22.3022 10.5679 23.548 8.69537 24.4182C8.16882 24.0555 7.67734 23.6367 7.22996 23.1663ZM12.3633 25.919C14.5648 24.4421 16.4181 22.4739 17.761 20.1759C19.329 17.4926 20.1579 14.4208 20.1579 11.2925C20.1579 10.7599 20.1333 10.2261 20.0857 9.6959C22.088 11.4595 23.2568 14.0132 23.2568 16.7193C23.2568 17.1053 23.2329 17.4923 23.1861 17.8739H22.0169C21.8398 17.5716 21.6539 17.2714 21.4615 16.9798C21.4616 16.98 21.4614 16.9796 21.4615 16.9798C21.6601 16.3163 21.8251 15.64 21.9535 14.9535C22.0013 14.6979 21.8337 14.4518 21.5791 14.4037C21.3251 14.3559 21.0795 14.524 21.0317 14.7797C20.8085 15.9729 20.4704 17.1331 20.028 18.2472C19.7789 18.8749 19.4945 19.4914 19.1792 20.0878C17.9675 22.3799 16.2833 24.4159 14.2123 26.0534C14.1273 26.0556 14.0424 26.0581 13.957 26.0581C13.4188 26.0581 12.886 26.0104 12.3633 25.919ZM18.5809 22.8302C18.7841 23.381 18.9538 23.9455 19.0883 24.5166C18.1263 25.1546 17.045 25.6115 15.8938 25.8548C16.8959 24.9363 17.7952 23.9221 18.5809 22.8302ZM19.9038 23.9086C19.7225 23.2204 19.4931 22.5435 19.2189 21.8887C19.4464 21.5307 19.6627 21.1657 19.8665 20.7938H20.0808C20.4044 21.4861 20.6813 22.2044 20.9063 22.9346C20.596 23.2855 20.2606 23.6107 19.9038 23.9086ZM21.6016 22.045C21.454 21.622 21.2904 21.2041 21.1111 20.7938H22.3266C22.1149 21.2334 21.8724 21.6513 21.6016 22.045ZM29.8442 20.6289H27.9918V18.0387H29.8442C30.5554 18.0387 31.1339 18.6197 31.1339 19.3338C31.1339 20.048 30.5554 20.6289 29.8442 20.6289Z" fill="#9B51E0"/>
</svg>
