<svg width="30" height="30" viewBox="0 0 30 30" fill="none" xmlns="http://www.w3.org/2000/svg">
<path d="M28.9859 5.90893L19.8961 14.9997L28.9859 24.09C30.338 25.4426 30.338 27.6336 28.9859 28.9862C28.3104 29.6618 27.4247 29.9998 26.5394 29.9998C25.6527 29.9998 24.7669 29.6623 24.0918 28.9862L15 19.8948L5.90893 28.9861C5.23345 29.6617 4.34767 29.9997 3.46162 29.9997C2.57583 29.9997 1.69064 29.6622 1.01457 28.9861C-0.3375 27.6342 -0.3375 25.4431 1.01457 24.09L10.1041 14.9996L1.01405 5.90893C-0.338017 4.55686 -0.338017 2.36534 1.01405 1.01328C2.36586 -0.337758 4.55609 -0.337758 5.90841 1.01328L15 10.104L24.0908 1.01328C25.4434 -0.337758 27.6339 -0.337758 28.9854 1.01328C30.338 2.36534 30.338 4.55686 28.9859 5.90893Z" fill="#F2F2F2"/>
</svg>
